<?xml version="1.0" standalone="no"?>
<!DOCTYPE svg PUBLIC "-//W3C//DTD SVG 20010904//EN"
 "http://www.w3.org/TR/2001/REC-SVG-20010904/DTD/svg10.dtd">
<svg version="1.0" xmlns="http://www.w3.org/2000/svg"
 width="782.000000pt" height="782.000000pt" viewBox="0 0 782.000000 782.000000"
 preserveAspectRatio="xMidYMid meet">
<metadata>
Created by potrace 1.14, written by Peter Selinger 2001-2017
</metadata>
<g transform="translate(0.000000,782.000000) scale(0.100000,-0.100000)"
fill="#000000" stroke="none">
<path d="M0 3910 l0 -3910 1790 0 1790 0 0 65 c0 88 18 130 60 139 55 10 76 7
98 -17 18 -19 22 -35 22 -89 0 -37 3 -73 6 -82 6 -15 166 -16 1715 -16 1512 0
1709 2 1709 15 0 8 5 15 10 15 7 0 8 6 2 17 -7 11 -5 21 4 31 8 7 14 25 14 40
0 38 10 48 49 57 38 8 95 37 124 63 25 22 89 135 111 194 l18 48 -35 32 c-19
18 -37 40 -41 48 -26 58 -131 173 -193 212 -18 11 -33 24 -33 29 0 5 -21 19
-47 31 -27 11 -57 25 -69 30 -11 5 -46 7 -77 3 -80 -8 -76 14 12 60 61 32 71
42 100 97 17 33 31 67 31 74 0 17 17 18 23 2 4 -10 6 -9 6 1 1 10 5 10 14 3 6
-6 39 -17 72 -26 33 -8 65 -22 71 -31 6 -8 14 -15 18 -15 3 0 19 -14 36 -31
16 -18 30 -27 30 -20 0 6 5 11 11 11 5 0 8 -4 5 -9 -3 -5 10 -18 29 -30 34
-20 46 -41 24 -41 -8 0 -7 -5 1 -15 10 -11 10 -19 2 -27 -6 -6 -8 -18 -5 -27
6 -14 4 -14 -14 1 -11 10 -23 18 -27 18 -11 0 37 -59 102 -126 28 -30 52 -63
52 -72 1 -17 22 -52 33 -52 3 0 13 8 23 17 13 13 19 14 22 5 5 -17 67 -15 82
3 18 22 24 91 11 122 -14 32 -86 89 -126 99 -21 5 -26 11 -23 33 2 16 8 25 17
23 8 -2 17 2 21 9 5 8 19 4 46 -15 25 -17 40 -22 45 -15 4 8 8 7 11 -2 5 -14
24 65 33 135 5 43 -8 68 -31 59 -24 -9 -16 15 11 33 17 11 25 25 25 45 l0 29
-35 -14 c-33 -14 -35 -14 -55 11 -24 30 -24 32 -5 57 10 14 23 17 54 14 l41
-4 0 3283 0 3283 -1595 0 -1595 0 0 -183 c0 -147 -3 -187 -15 -204 -21 -31 -7
-36 79 -28 53 5 88 3 127 -8 30 -8 97 -21 149 -27 52 -7 107 -17 123 -22 37
-14 77 -63 77 -95 0 -41 192 -241 272 -283 96 -51 171 -113 227 -187 42 -56
52 -78 61 -135 11 -66 11 -71 -17 -136 -33 -79 -110 -163 -166 -181 -20 -7
-37 -18 -37 -25 0 -14 -52 -26 -110 -25 -29 0 -39 6 -58 36 -21 33 -22 37 -7
53 15 17 15 19 -2 23 -10 2 1 2 25 -1 l43 -4 -6 36 c-6 30 -4 36 9 36 14 0 16
7 10 38 -9 50 -8 49 -65 77 -44 23 -64 45 -40 45 4 0 8 13 7 30 -1 17 -7 30
-13 30 -7 0 -13 5 -13 10 0 6 -8 13 -17 17 -10 3 -27 14 -39 25 -11 10 -35 23
-53 28 -29 8 -34 7 -38 -10 -3 -11 -9 -20 -13 -20 -5 0 -10 -10 -12 -22 -2
-13 -11 -24 -23 -27 -11 -2 -24 -10 -28 -17 -11 -19 -27 -8 -27 19 0 13 -9 30
-20 40 -33 28 -25 61 28 112 26 25 59 49 75 52 57 12 42 43 -30 60 -58 14 -93
7 -88 -19 3 -15 -12 -39 -50 -80 -30 -33 -55 -68 -55 -79 0 -19 44 -69 61 -69
5 0 9 -13 9 -29 0 -21 -6 -30 -22 -34 -22 -6 -101 7 -122 21 -6 3 -28 7 -49 8
-44 2 -42 2 -51 31 -5 17 -2 23 16 29 22 7 22 7 3 14 -11 4 -20 16 -20 26 0
12 -8 20 -21 22 -12 2 -24 11 -27 21 -3 12 -21 22 -51 30 -28 7 -44 16 -40 22
3 6 17 8 29 5 13 -3 27 -2 30 4 3 5 15 10 26 10 32 0 13 17 -27 24 -25 5 -34
11 -30 21 3 8 -1 20 -9 27 -29 26 -40 34 -57 41 -11 4 -18 17 -18 31 0 14 -6
31 -14 38 -12 11 -11 17 5 39 10 14 16 29 13 32 -13 13 9 46 38 56 17 6 34 9
36 6 3 -3 2 -5 -1 -5 -4 0 3 -11 15 -25 12 -14 29 -23 37 -20 21 6 47 -10 32
-19 -22 -14 0 -25 29 -14 22 7 34 7 44 -1 8 -7 17 -8 20 -3 3 6 24 6 48 1 28
-5 47 -4 53 3 7 7 6 9 -1 5 -7 -4 -17 0 -24 8 -7 8 -21 15 -32 15 -22 0 -82
57 -82 78 -1 8 -12 19 -25 26 -19 11 -21 14 -7 19 28 11 17 24 -25 31 -32 5
-46 3 -60 -10 -10 -9 -31 -17 -47 -19 -16 -1 -34 -5 -40 -9 -8 -5 -12 0 -12
12 0 23 -35 35 -61 21 -25 -13 -29 -11 -23 9 4 11 -3 7 -20 -10 -26 -29 -46
-36 -46 -17 0 5 -4 8 -10 4 -5 -3 -6 -13 -3 -21 3 -9 0 -20 -8 -24 -7 -5 -11
-11 -8 -15 3 -3 31 8 61 24 36 20 59 26 69 21 11 -7 0 -22 -46 -67 -66 -64
-79 -95 -36 -91 17 2 26 -2 29 -14 2 -11 -3 -18 -11 -18 -8 0 -17 -7 -21 -15
-3 -8 -17 -15 -30 -15 -18 0 -24 -4 -20 -15 4 -10 0 -15 -11 -15 -11 0 -15 -5
-11 -15 3 -8 0 -16 -7 -17 -7 0 -16 -2 -22 -3 -5 -2 -21 -3 -34 -4 -15 -1 -21
-6 -18 -14 4 -10 -4 -14 -24 -14 -17 0 -25 3 -19 7 24 15 -63 50 -120 48 -14
-1 -67 3 -119 7 -106 9 -164 34 -168 73 -2 18 2 22 28 22 17 0 28 4 24 10 -3
5 -12 7 -20 3 -23 -8 -18 9 13 42 15 16 26 33 25 37 -2 5 6 8 17 8 11 0 20 -4
20 -10 0 -5 7 -10 16 -10 14 0 14 2 3 16 -11 14 -10 18 6 30 24 18 44 2 25
-21 -7 -8 -9 -15 -4 -15 4 0 -1 -7 -12 -15 -14 -11 -15 -14 -4 -15 17 0 42 14
41 24 -3 22 0 36 9 36 6 0 10 -6 10 -13 0 -18 24 -67 33 -67 4 0 7 12 7 26 0
14 4 23 10 19 12 -7 50 16 50 31 0 15 35 46 43 37 4 -3 7 1 7 10 0 10 5 17 12
17 9 0 9 3 1 11 -9 9 -18 8 -37 -4 -14 -9 -27 -13 -30 -9 -6 10 -118 3 -126
-7 -3 -4 -29 -8 -58 -9 -39 -2 -54 2 -58 13 -4 8 -17 15 -31 15 -13 0 -21 -4
-18 -10 9 -14 -18 -13 -33 2 -8 8 -18 9 -35 1 -13 -6 -35 -9 -50 -6 -16 3 -27
1 -27 -6 0 -6 -10 -11 -22 -11 -44 0 -53 -15 -31 -46 11 -16 20 -47 20 -69 1
-34 8 -46 48 -84 27 -25 61 -65 76 -90 31 -49 73 -176 85 -256 13 -92 44 -197
72 -244 37 -61 50 -95 58 -156 3 -27 14 -85 25 -129 10 -43 19 -94 19 -112 0
-18 4 -35 8 -38 12 -7 202 26 202 35 0 5 -9 13 -21 19 -19 10 -20 18 -14 68 4
39 2 70 -8 98 l-15 41 24 -5 c14 -2 24 0 24 7 0 6 15 17 34 25 22 9 36 23 40
40 4 18 13 26 29 26 13 0 27 4 32 9 6 5 43 12 82 15 40 4 96 11 124 16 42 8
54 7 63 -5 35 -45 249 -166 366 -207 90 -30 103 -32 235 -32 91 0 175 6 240
18 133 24 135 24 253 30 56 3 121 8 145 11 23 3 101 -1 172 -9 72 -8 222 -15
336 -16 185 0 215 -3 304 -25 53 -14 112 -25 129 -25 72 -1 184 -81 218 -157
37 -83 33 -236 -9 -317 -42 -80 -199 -196 -267 -196 -12 0 -26 -4 -32 -9 -5
-5 -23 -12 -40 -15 -26 -6 -32 -3 -36 12 -3 10 1 27 8 37 8 10 14 13 14 7 0
-7 7 -12 15 -12 18 0 37 43 29 65 -4 9 0 15 9 15 37 0 25 71 -21 123 -14 15
-13 17 3 17 18 0 18 1 -1 15 -19 15 -19 15 0 30 18 14 18 15 1 52 -24 51 -35
56 -63 27 -31 -30 -62 -31 -91 0 -17 18 -22 33 -19 62 3 34 6 39 28 40 40 2
43 3 31 18 -13 16 -59 27 -66 16 -7 -11 -98 14 -126 34 -30 21 -41 20 -38 -1
2 -30 1 -31 -43 -21 -24 4 -69 11 -101 14 -32 2 -70 12 -83 20 -16 11 -24 13
-24 4 0 -6 -6 -10 -12 -7 -7 2 -12 10 -10 17 2 8 -3 10 -13 6 -9 -3 -19 -6
-21 -6 -2 0 -4 -9 -4 -20 0 -17 -4 -19 -27 -13 -16 3 -48 15 -72 26 -36 16
-56 18 -115 13 -39 -4 -87 -8 -106 -10 -19 -1 -47 -6 -63 -10 -19 -6 -38 -3
-63 9 -37 17 -37 17 -128 -19 -50 -20 -99 -36 -109 -36 -14 0 -17 -5 -12 -20
6 -18 3 -20 -17 -15 -21 4 -97 6 -233 5 -56 0 -196 46 -215 72 -3 4 -26 16
-50 28 -25 11 -65 32 -90 45 -25 13 -48 24 -52 24 -3 1 -4 -36 -2 -81 2 -46 4
-89 4 -96 0 -7 15 -19 34 -27 21 -9 36 -23 40 -39 4 -15 20 -33 39 -42 34 -18
95 -62 112 -80 24 -27 162 -74 215 -74 11 0 20 -4 20 -9 0 -5 -13 -8 -30 -7
-33 2 -40 -11 -12 -21 42 -16 107 -69 104 -85 -4 -23 -62 -17 -117 11 -21 12
-45 21 -52 21 -8 0 -25 7 -38 16 -14 9 -31 14 -38 11 -7 -3 -19 3 -25 14 -12
18 -115 89 -131 89 -5 0 -15 7 -22 16 -24 30 -165 84 -217 84 -51 0 -72 -16
-72 -54 0 -34 -23 -66 -70 -98 l-25 -17 30 -25 c17 -14 37 -25 44 -26 8 0 32
-12 52 -26 20 -14 50 -26 65 -28 16 -2 29 -8 29 -14 0 -11 55 -62 68 -62 4 0
36 -18 70 -41 40 -26 70 -39 85 -36 19 4 28 -4 20 -16 -2 -2 3 -11 10 -20 14
-17 0 -33 -19 -22 -19 12 -59 -4 -59 -24 0 -11 -9 -21 -22 -25 -27 -7 -88 -7
-71 1 7 2 13 12 13 21 1 15 2 15 14 -1 12 -15 15 -16 26 -2 20 24 0 37 -38 24
-27 -9 -37 -8 -68 12 -34 21 -38 21 -49 6 -14 -20 -29 -23 -22 -4 6 17 -82 45
-110 35 -14 -4 -23 -4 -23 2 0 6 7 10 15 10 8 0 15 5 15 10 0 6 -7 10 -17 10
-18 0 -69 15 -261 77 -74 24 -147 43 -162 43 -37 0 -45 14 -23 36 10 9 25 31
33 48 19 39 74 56 124 38 44 -16 135 -15 166 3 14 8 20 14 15 15 -6 0 -16 14
-24 30 -19 44 -80 109 -121 129 -19 10 -66 29 -104 42 -37 13 -71 29 -73 36
-9 23 -25 14 -107 -65 -115 -110 -121 -114 -169 -122 -23 -4 -49 -10 -57 -14
-12 -5 -15 5 -16 59 -1 36 -7 78 -13 93 -6 15 -16 41 -22 57 -7 17 -13 32 -14
35 -1 3 -8 19 -15 35 -17 37 -17 40 -19 69 0 15 -9 27 -20 31 -10 3 -21 19
-25 36 -3 16 -18 41 -33 54 -23 20 -25 26 -14 34 12 8 12 13 -3 36 -9 14 -26
29 -37 34 -18 6 -19 9 -5 20 8 7 13 18 10 25 -7 18 11 29 94 55 39 12 72 26
72 31 0 17 -34 42 -89 66 -31 14 -77 36 -104 49 -67 35 -111 33 -133 -6 -5 -9
-31 -33 -57 -53 -75 -57 -127 -72 -127 -37 0 25 -9 30 -40 21 -24 -6 -21 -9
35 -45 76 -49 136 -72 213 -81 47 -5 62 -10 63 -23 6 -130 -12 -222 -68 -340
-36 -75 -59 -108 -116 -165 -40 -39 -89 -80 -109 -90 -33 -18 -40 -19 -65 -6
-15 8 -65 51 -111 96 -67 67 -89 97 -122 166 -42 91 -74 234 -68 311 l3 42 74
12 c73 12 189 59 223 90 28 25 23 45 -9 41 -16 -2 -27 -8 -26 -14 1 -7 -6 -10
-17 -7 -15 4 -19 1 -15 -9 7 -17 -35 -34 -45 -19 -3 5 -14 10 -25 12 -15 3
-20 12 -20 34 0 29 2 30 75 45 94 20 117 34 116 71 -1 16 -4 29 -8 29 -20 0
-338 -83 -365 -95 -17 -8 -36 -15 -42 -15 -24 0 -192 -71 -238 -100 -42 -27
-44 -30 -18 -25 17 4 36 9 44 11 11 4 10 -1 -3 -15 -10 -11 -27 -23 -37 -26
-11 -4 -19 -14 -19 -24 0 -22 -40 -42 -69 -34 -23 6 -26 -3 -11 -27 8 -13 13
-13 30 -2 22 14 64 7 55 -9 -7 -10 -131 -69 -146 -69 -5 0 -9 5 -9 10 0 6 6
10 14 10 8 0 24 8 37 19 22 18 22 19 5 36 -15 16 -22 16 -59 5 -73 -23 -166
-76 -292 -166 -27 -19 -72 -52 -100 -72 -81 -58 -119 -94 -131 -122 -7 -15
-25 -32 -42 -39 -48 -20 -87 -101 -50 -101 21 0 68 -63 62 -82 -3 -11 0 -26 7
-34 10 -12 7 -19 -12 -40 -13 -14 -39 -32 -58 -40 -38 -16 -63 -18 -41 -4 11
7 7 10 -17 10 -19 0 -43 10 -62 26 -28 24 -34 25 -67 14 l-36 -12 7 -66 c5
-50 20 -93 68 -191 34 -70 72 -149 84 -176 116 -266 91 -473 -71 -596 -28 -21
-59 -46 -70 -55 -16 -14 -52 -16 -321 -15 l-304 2 -6 -48 c-6 -45 -25 -107
-30 -101 -4 5 12 111 20 131 6 14 1 17 -29 17 -43 0 -44 2 -80 140 -15 58 -35
131 -43 162 -21 74 -15 88 39 88 l43 0 -3 95 -3 95 118 0 c107 0 119 2 131 20
11 18 23 20 107 20 94 0 95 0 101 27 4 15 2 52 -4 83 -7 31 -12 77 -12 102 0
28 -5 48 -12 51 -10 4 -10 7 0 18 9 9 12 63 12 196 0 166 -2 183 -18 192 -13
7 -27 6 -45 -4 -14 -7 -28 -11 -31 -7 -3 3 -6 27 -6 53 0 47 1 48 55 81 44 27
54 38 55 60 0 32 9 58 21 58 4 0 21 12 36 26 l28 26 5 -38 c6 -46 22 -53 48
-19 11 14 24 25 29 25 5 0 20 12 35 28 49 50 67 64 78 60 7 -2 -1 -19 -19 -42
-17 -21 -31 -43 -31 -47 0 -5 -6 -9 -13 -9 -13 0 -77 -63 -77 -75 0 -16 27 1
71 45 27 28 52 50 55 50 3 0 -3 -13 -13 -30 -9 -16 -22 -30 -27 -30 -5 0 -6
-3 -3 -7 4 -3 16 2 27 12 22 20 25 10 9 -32 -6 -15 -11 -40 -11 -55 0 -16 -4
-28 -9 -28 -5 0 -9 -5 -9 -12 0 -6 -7 -19 -16 -29 -12 -14 -14 -29 -9 -73 4
-31 11 -56 14 -56 11 0 47 42 54 62 3 9 19 25 34 35 15 9 48 32 73 51 37 27
45 30 50 17 9 -26 50 19 50 55 0 16 5 32 10 35 6 4 10 -7 10 -24 0 -29 2 -30
20 -19 25 16 26 34 3 47 -17 9 -17 10 0 16 9 4 24 2 31 -5 16 -13 37 -5 91 35
17 13 47 32 68 43 36 19 67 44 205 164 30 26 72 57 95 68 133 70 91 82 -56 16
-22 -9 -43 -16 -49 -14 -8 3 44 36 227 145 32 19 35 20 140 58 132 48 154 53
76 15 -35 -16 -68 -30 -72 -30 -5 0 -9 -6 -9 -12 -1 -7 -21 -26 -46 -42 -25
-15 -43 -30 -42 -32 7 -6 101 22 153 45 28 13 100 41 160 62 61 22 119 46 130
53 11 6 40 18 65 26 54 16 99 38 117 55 8 9 31 12 70 8 49 -4 65 -1 108 22 44
24 50 25 61 11 13 -19 66 -12 85 10 6 8 18 14 26 14 19 0 11 25 -8 26 -55 4
-55 4 -36 15 9 5 21 8 26 4 5 -3 12 -1 16 5 3 5 19 10 34 10 38 0 58 24 38 45
-19 19 -135 23 -194 6 -23 -6 -54 -11 -70 -10 -15 0 -38 -2 -50 -6 -16 -5 -25
-3 -29 9 -5 12 -16 14 -52 10 -79 -9 -96 -20 -111 -69 -11 -37 -51 -93 -51
-71 0 4 -6 1 -14 -6 -19 -18 1 -30 38 -22 39 8 27 -7 -27 -34 -31 -16 -51 -20
-66 -14 l-22 8 25 13 c24 13 24 14 8 39 -9 14 -24 45 -32 70 -13 38 -20 45
-44 48 -37 4 -40 8 -21 28 15 15 14 16 -9 16 -14 0 -28 5 -31 10 -3 6 -15 10
-26 10 -21 0 -26 16 -6 23 8 4 8 8 2 14 -5 4 -10 15 -10 23 0 8 -10 19 -23 25
-25 11 -29 37 -7 58 8 8 11 18 7 22 -4 4 4 5 18 4 16 -2 39 6 60 23 19 14 43
28 53 29 10 2 19 9 20 14 1 6 13 20 27 32 18 15 27 18 33 10 4 -7 5 0 1 16 -4
17 -2 27 5 27 6 0 11 3 11 8 0 10 -54 10 -61 -1 -3 -4 -18 -3 -32 2 -19 7 -27
7 -27 0 0 -6 -7 -4 -15 5 -17 17 -20 46 -4 46 5 0 8 4 5 9 -3 4 31 11 76 14
64 4 85 10 102 26 l20 21 -29 -8 c-17 -5 -43 -5 -60 -2 l-30 6 29 8 c16 4 39
14 50 22 19 13 18 14 -24 16 -48 1 -56 1 -109 -10 -35 -7 -56 -32 -27 -32 9 0
16 -4 16 -10 0 -5 -9 -10 -21 -10 -12 0 -19 -5 -17 -12 6 -17 -59 -39 -86 -29
-32 12 -121 7 -139 -7 -9 -7 -26 -15 -39 -16 -13 -2 -34 -8 -48 -15 -22 -10
-25 -18 -23 -53 2 -44 8 -42 -67 -21 -20 5 -15 -3 25 -39 28 -25 57 -59 64
-74 8 -16 35 -48 60 -71 36 -34 43 -45 33 -55 -19 -19 -14 -43 13 -71 20 -19
26 -36 28 -77 2 -47 -1 -54 -28 -73 -18 -14 -44 -22 -69 -22 -22 0 -41 -5 -43
-12 -3 -7 3 -13 12 -13 14 0 15 -3 5 -15 -7 -8 -16 -13 -20 -10 -4 3 -13 -1
-19 -9 -12 -14 -35 -16 -46 -4 -11 10 -45 -4 -45 -18 0 -10 7 -13 25 -8 33 8
33 -13 0 -26 -14 -5 -28 -16 -31 -24 -3 -9 -25 -18 -49 -22 -39 -5 -47 -3 -69
21 -32 34 -46 31 -154 -35 -46 -27 -87 -50 -92 -50 -5 0 -10 -4 -12 -8 -4 -10
-124 -102 -133 -102 -3 0 -21 -11 -39 -25 -18 -14 -36 -25 -39 -25 -16 0 -5
35 18 56 19 17 25 33 25 63 0 32 -3 39 -15 35 -22 -9 -18 14 4 26 23 12 27 7
30 -39 2 -39 9 -51 19 -35 4 6 34 28 67 49 33 21 96 62 140 90 44 29 99 63
123 75 26 15 42 31 42 43 0 14 -5 17 -20 12 -11 -3 -27 -2 -36 3 -13 7 -7 13
30 30 25 12 51 22 57 22 6 0 9 6 6 13 -2 8 -29 12 -85 12 -45 0 -82 3 -82 6 0
10 35 38 60 47 23 9 21 11 -32 26 -67 20 -93 18 -135 -12 -37 -26 -55 -28 -46
-6 5 14 3 15 -14 6 -11 -6 -41 -9 -66 -7 -25 3 -49 0 -52 -5 -3 -6 1 -10 9
-10 24 0 8 -27 -20 -33 -26 -5 -43 8 -22 16 10 4 11 7 1 18 -10 9 -13 10 -13
1 0 -7 -4 -12 -10 -12 -5 0 -10 9 -10 19 0 14 5 18 20 14 22 -6 28 12 8 21
-10 5 -10 7 0 12 6 3 12 12 12 19 0 8 9 20 19 27 29 20 31 52 4 56 -13 2 -23
10 -23 17 0 17 27 45 43 45 6 0 23 13 37 29 25 28 80 55 66 32 -5 -7 2 -11 18
-11 16 0 26 6 26 15 0 8 6 12 13 9 13 -4 47 53 47 79 0 7 10 18 21 26 17 10
19 15 9 21 -18 11 -54 -3 -211 -80 -20 -10 -58 -21 -85 -25 -27 -4 -64 -15
-81 -26 -24 -13 -51 -18 -100 -17 -71 2 -263 -37 -263 -53 0 -5 -11 -9 -25 -9
-14 0 -33 -9 -42 -20 -10 -11 -23 -20 -30 -20 -16 0 -17 -12 -3 -26 7 -7 1 -9
-19 -6 l-29 4 21 24 c11 13 26 24 33 24 10 0 24 21 24 36 0 11 -60 1 -99 -16
-58 -27 -69 -25 -40 6 27 29 120 74 153 74 12 0 42 11 67 24 56 30 163 56 229
56 27 0 59 4 72 9 13 5 71 12 131 16 94 6 119 11 199 46 50 21 126 46 170 54
43 8 95 23 115 33 57 29 123 41 273 52 86 6 186 21 275 41 86 20 165 32 205
32 36 -1 126 -1 200 0 480 2 560 1 621 -11 36 -6 135 -17 220 -22 85 -6 191
-18 237 -27 64 -12 88 -13 108 -4 14 6 34 11 45 11 19 0 18 3 -8 37 l-28 36
-3 189 -4 188 -2104 0 -2104 0 0 -3910z m2620 3620 c16 -29 -4 -60 -38 -60
-31 0 -52 16 -52 40 0 41 70 57 90 20z m3688 -589 c1 -198 -2 -338 -7 -345 -6
-6 -29 -10 -55 -8 l-46 4 -2 262 c-1 143 -2 268 -4 276 -1 8 -2 18 -3 23 -1 4
-19 -2 -41 -13 -23 -11 -46 -18 -51 -14 -15 9 -4 85 13 95 7 4 32 20 56 36 36
25 49 28 90 23 l47 -5 3 -334z m-2308 315 c0 -3 -4 -8 -10 -11 -5 -3 -10 -1
-10 4 0 6 5 11 10 11 6 0 10 -2 10 -4z m-143 -33 c-9 -9 -20 -14 -24 -10 -3 4
2 14 13 21 25 19 33 10 11 -11z m763 7 c0 -5 -3 -10 -7 -10 -5 0 -19 -3 -33
-6 l-25 -5 25 15 c30 18 40 20 40 6z m-870 -10 c0 -5 -7 -10 -15 -10 -8 0 -15
5 -15 10 0 6 7 10 15 10 8 0 15 -4 15 -10z m66 -29 c-17 -3 -29 -10 -28 -16 2
-10 -2 -10 -30 -6 -22 3 36 30 62 29 23 0 22 -1 -4 -7z m624 -51 c0 -5 -5 -10
-11 -10 -5 0 -7 5 -4 10 3 6 8 10 11 10 2 0 4 -4 4 -10z m-2612 -32 c-2 -6
-14 -12 -26 -13 -24 -2 -30 10 -9 18 22 10 39 7 35 -5z m2755 -175 c-7 -2 -19
-2 -25 0 -7 3 -2 5 12 5 14 0 19 -2 13 -5z m-3403 -33 c0 -5 -5 -10 -11 -10
-5 0 -7 5 -4 10 3 6 8 10 11 10 2 0 4 -4 4 -10z m-210 -20 c-20 -13 -43 -13
-35 0 3 6 16 10 28 10 18 0 19 -2 7 -10z m138 -48 c15 -19 16 -32 1 -32 -5 0
-7 -4 -4 -10 3 -6 -4 -10 -16 -10 -19 0 -20 -13 -1 -16 25 -3 42 -20 42 -40 0
-15 6 -24 16 -24 10 0 14 -7 12 -20 -2 -10 6 -26 17 -34 17 -14 18 -17 5 -26
-8 -6 -23 -8 -34 -6 -10 3 -25 -2 -33 -10 -8 -8 -24 -14 -37 -14 -12 0 -27 -5
-34 -12 -9 -9 -13 -7 -18 5 -3 9 -10 17 -15 17 -5 0 -4 -9 3 -20 20 -32 -2
-43 -88 -42 -53 1 -96 -5 -136 -19 -33 -11 -70 -19 -82 -17 -12 2 -20 -2 -19
-9 2 -6 -5 -11 -15 -11 -9 0 -25 -3 -34 -7 -10 -4 -18 -3 -18 3 0 5 7 12 15
16 8 3 15 13 15 22 0 9 11 29 25 46 28 33 33 68 10 68 -8 0 -15 5 -15 11 0 16
60 89 73 89 6 0 22 10 36 23 15 13 44 29 66 36 22 8 46 19 54 25 25 20 125 45
161 40 19 -3 41 -13 48 -22z m1412 4 c-38 -21 -70 -29 -70 -18 0 12 46 30 75
31 17 0 17 -2 -5 -13z m2035 -36 c3 -5 -1 -10 -9 -10 -9 0 -16 5 -16 10 0 6 4
10 9 10 6 0 13 -4 16 -10z m-1495 -74 c0 -3 -4 -8 -10 -11 -5 -3 -10 -1 -10 4
0 6 5 11 10 11 6 0 10 -2 10 -4z m-1450 -40 c0 -12 11 -32 25 -44 14 -12 25
-28 25 -34 -1 -9 -5 -8 -13 3 -7 9 -18 14 -24 12 -7 -3 -13 2 -13 11 0 9 -4
16 -9 16 -5 0 -9 15 -8 34 1 38 17 39 17 2z m30 30 c0 -3 -4 -8 -10 -11 -5 -3
-10 -1 -10 4 0 6 5 11 10 11 6 0 10 -2 10 -4z m-45 -105 c-5 -25 -3 -30 19
-37 l26 -9 -35 -28 c-26 -21 -35 -24 -35 -12 0 8 6 15 13 16 10 0 10 2 0 6
-14 5 -16 34 -7 71 9 33 27 27 19 -7z m5455 -26 c0 -19 -27 -26 -40 -9 -18 20
6 50 26 33 8 -6 14 -17 14 -24z m-6767 -5 c14 -11 37 -20 51 -20 14 0 26 -4
26 -10 0 -5 14 -23 31 -39 42 -40 50 -92 17 -115 -38 -27 -78 -20 -115 20 -25
28 -33 46 -33 74 0 23 -8 48 -21 64 -34 44 -3 63 44 26z m624 -64 c1 -5 7 -13
15 -17 10 -7 9 -9 -4 -9 -9 0 -20 5 -23 10 -8 13 -52 13 -60 0 -4 -6 -11 -8
-16 -5 -5 4 -9 -2 -9 -12 -1 -17 -1 -17 -14 0 -9 12 -16 14 -21 8 -8 -13 -25
-14 -25 -2 0 5 28 16 62 23 69 16 92 16 95 4z m6656 -8 c15 -23 1 -48 -26 -48
-46 0 -64 44 -24 60 27 11 38 8 50 -12z m-5838 2 c-3 -5 -10 -10 -16 -10 -5 0
-9 5 -9 10 0 6 7 10 16 10 8 0 12 -4 9 -10z m572 -13 c4 -7 -5 -8 -25 -4 -19
4 -32 2 -32 -3 0 -6 -4 -10 -9 -10 -5 0 -22 -5 -38 -12 -15 -6 -36 -10 -46 -9
-10 1 -26 -3 -35 -11 -10 -8 -13 -9 -9 -1 7 11 91 54 127 65 20 6 59 -2 67
-15z m3949 -23 c29 -31 31 -48 4 -41 -11 3 -20 1 -20 -4 0 -5 -4 -9 -10 -9 -5
0 -10 18 -10 40 0 22 3 40 6 40 4 0 17 -11 30 -26z m-5312 -6 c-4 -5 -17 -8
-29 -6 -17 4 -22 1 -18 -10 5 -12 2 -12 -14 -4 -11 6 -23 9 -26 6 -3 -3 -3 2
-1 13 4 15 13 17 49 15 27 -3 42 -8 39 -14z m-120 -23 c-4 -8 -14 -15 -23 -15
-14 1 -13 3 3 15 25 19 27 19 20 0z m1406 11 c0 -2 -7 -7 -16 -10 -8 -3 -12
-2 -9 4 6 10 25 14 25 6z m-1590 -14 c0 -13 -12 -22 -22 -16 -10 6 -1 24 13
24 5 0 9 -4 9 -8z m2213 1 c-7 -2 -19 -2 -25 0 -7 3 -2 5 12 5 14 0 19 -2 13
-5z m-768 -13 c-3 -5 -12 -10 -18 -10 -7 0 -6 4 3 10 19 12 23 12 15 0z m701
-1 c4 -8 -3 -9 -25 -4 -23 5 -32 3 -37 -9 -3 -9 -15 -16 -25 -16 -10 0 -19 -4
-19 -10 0 -5 -4 -10 -10 -10 -17 0 -1 24 28 42 32 19 78 23 88 7z m-2020 -11
c-10 -6 -22 -6 -26 -2 -5 5 3 10 18 11 22 1 24 0 8 -9z m109 -5 c-11 -3 -23
-10 -27 -17 -5 -7 -8 -7 -8 0 0 16 11 24 34 23 20 -1 20 -1 1 -6z m-180 -23
c-3 -5 -14 -10 -23 -10 -15 0 -15 2 -2 10 20 13 33 13 25 0z m50 -20 c3 -5 1
-10 -4 -10 -6 0 -11 5 -11 10 0 6 2 10 4 10 3 0 8 -4 11 -10z m-25 -4 c0 -3
-4 -8 -10 -11 -5 -3 -10 -1 -10 4 0 6 5 11 10 11 6 0 10 -2 10 -4z m-85 -15
c6 -11 -36 -44 -44 -35 -3 3 2 10 12 15 9 6 15 14 12 20 -4 5 -2 9 4 9 5 0 12
-4 16 -9z m1919 0 c9 -14 -22 -34 -54 -35 -38 -1 -37 5 3 26 38 20 44 21 51 9z
m3673 -23 c-3 -8 -6 -5 -6 6 -1 11 2 17 5 13 3 -3 4 -12 1 -19z m-5583 -19
c-25 -27 -54 -43 -54 -29 0 9 57 50 69 50 2 0 -4 -9 -15 -21z m5616 1 c0 -5
-5 -10 -11 -10 -5 0 -7 5 -4 10 3 6 8 10 11 10 2 0 4 -4 4 -10z m-3855 -14 c8
-7 11 -16 8 -19 -9 -10 -44 13 -38 24 8 12 14 11 30 -5z m143 -258 c1 -25 16
-124 30 -200 5 -27 16 -56 25 -66 10 -10 17 -35 17 -55 0 -20 9 -51 19 -69 10
-18 26 -66 35 -107 9 -40 24 -87 32 -103 8 -16 18 -58 21 -93 5 -55 2 -76 -22
-142 -22 -62 -37 -87 -74 -121 -25 -23 -60 -49 -78 -57 -30 -15 -34 -14 -57 6
-25 21 -25 23 -7 35 19 14 35 74 19 74 -4 0 -8 -5 -8 -12 0 -6 -3 -8 -6 -5 -4
4 1 18 10 32 16 25 16 25 -14 25 -18 0 -29 4 -25 10 3 5 24 9 46 8 22 -1 45 5
52 12 10 10 5 11 -23 6 l-35 -6 30 26 29 27 -22 18 c-22 17 -22 20 -8 48 9 17
16 39 16 51 0 18 11 25 35 20 30 -6 46 87 26 157 -5 18 -11 49 -12 70 -2 21
-6 40 -9 43 -17 16 -40 76 -40 105 0 21 -6 38 -16 43 -12 7 -16 31 -19 118 -1
60 -1 112 2 117 9 16 31 6 31 -15z m3501 -261 c39 -26 81 -95 81 -133 0 -11
13 -26 30 -36 66 -38 89 -124 48 -185 -31 -44 -77 -64 -161 -69 -75 -4 -98 5
-90 35 4 16 17 20 90 23 75 3 87 6 104 27 30 36 25 84 -12 115 -17 14 -36 26
-44 26 -15 0 -25 22 -25 58 0 41 -36 91 -77 109 -71 29 -150 4 -188 -60 -14
-24 -21 -27 -50 -21 -42 8 -90 -16 -110 -56 -12 -23 -22 -30 -46 -30 -36 0
-84 -23 -93 -45 -14 -36 -6 -76 20 -100 23 -21 37 -25 113 -27 84 -3 86 -3 86
-28 l0 -25 -97 1 c-91 1 -100 3 -135 30 -40 30 -60 35 -80 20 -8 -5 -13 -4
-13 3 0 11 13 15 39 11 10 -1 12 6 6 27 -8 32 -9 37 -7 75 3 38 62 95 109 104
26 5 51 21 80 51 37 37 48 43 85 43 33 0 49 6 73 29 53 52 83 63 157 58 51 -3
78 -11 107 -30z m-399 3 c0 -5 -7 -10 -15 -10 -8 0 -15 5 -15 10 0 6 7 10 15
10 8 0 15 -4 15 -10z m-470 -69 c0 -6 -4 -13 -10 -16 -5 -3 -10 1 -10 9 0 9 5
16 10 16 6 0 10 -4 10 -9z m-1195 -40 c-3 -6 3 -14 12 -20 17 -10 17 -10 1
-11 -10 0 -18 -4 -18 -10 0 -5 -17 -9 -37 -9 -24 1 -29 3 -15 6 13 3 22 12 22
22 0 10 3 21 7 24 10 11 35 8 28 -2z m1375 -50 c0 -10 -9 -21 -19 -24 -28 -7
-32 2 -14 29 17 26 33 23 33 -5z m-3700 -69 c0 -14 -11 -21 -26 -15 -21 8 -17
23 6 23 11 0 20 -4 20 -8z m4243 -38 c53 -51 58 -64 22 -64 -25 0 -25 -2 -25
-77 0 -43 -4 -84 -9 -91 -5 -9 -24 -12 -52 -10 l-44 3 -3 65 c-3 91 -9 110
-32 110 -11 0 -20 6 -20 13 0 16 88 97 104 97 6 0 32 -21 59 -46z m-923 21 c0
-8 -2 -15 -4 -15 -2 0 -6 7 -10 15 -3 8 -1 15 4 15 6 0 10 -7 10 -15z m390
-115 c0 -40 -4 -51 -21 -60 -11 -7 -31 -9 -44 -6 -18 5 -24 15 -29 52 -10 73
-8 81 19 88 18 5 23 11 18 24 -3 9 8 2 26 -16 26 -28 31 -41 31 -82z m-413 64
c17 -8 34 -22 38 -33 3 -11 17 -27 31 -36 20 -13 23 -19 14 -30 -10 -12 -16
-12 -39 -1 -14 7 -43 16 -63 20 -24 4 -39 13 -43 26 -3 11 -9 19 -13 17 -8 -2
-58 31 -51 35 45 29 60 29 126 2z m1593 -34 c0 -5 -4 -10 -10 -10 -5 0 -10 5
-10 10 0 6 5 10 10 10 6 0 10 -4 10 -10z m-1560 -80 c0 -15 -87 -34 -94 -21
-8 12 20 34 33 27 5 -4 12 -2 15 3 7 11 46 3 46 -9z m1830 -19 c39 -37 39 -71
-1 -110 -33 -34 -44 -36 -84 -21 -40 15 -51 31 -50 72 2 55 29 80 93 87 7 0
26 -12 42 -28z m-3727 -58 c-7 -2 -21 -2 -30 0 -10 3 -4 5 12 5 17 0 24 -2 18
-5z m2204 -50 c0 -46 5 -87 9 -76 3 7 11 10 19 7 16 -7 32 56 20 78 -6 9 -5
10 2 3 15 -14 26 -115 13 -115 -15 0 -12 -16 6 -34 9 -9 17 -22 18 -29 3 -20
20 -41 43 -54 17 -10 22 -9 27 2 8 22 25 18 19 -4 -3 -14 -15 -21 -37 -23
l-31 -3 21 -21 c24 -24 36 -52 28 -65 -5 -9 -101 68 -159 126 -11 12 -33 29
-48 38 -15 10 -25 22 -22 27 3 5 -17 32 -45 61 -68 70 -67 83 4 54 20 -8 36
-20 36 -26 0 -6 6 -9 14 -6 7 3 19 0 25 -6 8 -8 11 -5 11 14 0 33 11 69 20 69
4 0 7 -8 7 -17z m1890 -80 c-2 -21 -4 -6 -4 32 0 39 2 55 4 38 2 -18 2 -50 0
-70z m-6679 2 c-6 -14 -13 -23 -15 -21 -5 5 15 46 22 46 3 0 -1 -11 -7 -25z
m2467 -1 c-19 -15 -18 -16 15 -10 32 6 31 5 -15 -17 -40 -20 -46 -26 -30 -30
12 -3 4 -5 -19 -6 -30 -1 -37 -4 -32 -17 3 -8 2 -13 -3 -9 -5 3 -12 -1 -14 -7
-3 -7 -6 -3 -6 9 -1 16 6 24 23 29 17 4 22 11 19 24 -5 18 -6 18 -54 0 -60
-24 -64 -13 -6 17 54 28 65 31 107 32 34 0 34 0 15 -15z m2065 -34 c0 -5 -4
-10 -9 -10 -5 0 -18 -3 -28 -6 -16 -6 -16 -5 2 9 23 19 35 21 35 7z m38 -12
c6 -7 11 -17 12 -23 6 -24 15 -42 37 -72 12 -17 19 -34 15 -37 -9 -5 -52 46
-52 62 0 5 -7 15 -15 22 -9 7 -14 19 -11 27 3 7 1 13 -4 13 -6 0 -10 5 -10 10
0 14 15 13 28 -2z m332 2 c0 -5 -4 -10 -10 -10 -5 0 -10 5 -10 10 0 6 5 10 10
10 6 0 10 -4 10 -10z m-5285 -10 c3 -5 -3 -10 -15 -10 -12 0 -18 5 -15 10 3 6
10 10 15 10 5 0 12 -4 15 -10z m5075 -70 c0 -5 -13 -2 -30 6 -16 9 -30 17 -30
19 0 2 14 -1 30 -6 17 -6 30 -15 30 -19z m2040 -9 c18 -34 10 -111 -11 -111
-5 0 -8 8 -7 18 4 55 -3 84 -22 89 -11 3 -17 9 -14 14 10 16 43 9 54 -10z
m-737 -29 c2 -4 7 -20 11 -37 7 -29 7 -29 -13 -11 -11 10 -24 31 -30 47 -9 27
-9 28 9 19 10 -6 21 -13 23 -18z m-3609 -1 c24 -26 17 -52 -17 -71 -27 -14
-29 -14 -52 13 -20 22 -23 31 -14 50 13 30 60 34 83 8z m1271 -11 c122 -15
335 -62 479 -106 92 -29 123 -35 136 -26 15 9 17 8 13 -7 -4 -15 8 -22 66 -41
53 -18 73 -21 84 -12 16 14 73 0 70 -17 -2 -6 -1 -11 2 -11 11 0 61 26 67 35
4 5 8 0 8 -12 0 -25 11 -28 41 -13 42 23 107 -32 152 -130 9 -19 17 -28 18
-20 3 46 19 -57 18 -116 -2 -59 2 -76 20 -100 23 -32 51 -121 51 -165 0 -29
23 -59 58 -78 28 -15 28 -28 1 -36 -11 -4 -25 -20 -31 -36 -18 -53 -27 -42
-64 75 -11 37 -25 61 -35 63 -11 3 -20 19 -24 42 -3 20 -10 43 -15 51 -6 10
-10 -79 -10 -242 0 -225 2 -257 15 -252 10 4 15 0 15 -11 0 -32 33 -10 45 30
l12 40 8 -38 c5 -25 3 -42 -5 -52 -17 -20 -60 -19 -76 3 -12 15 -13 9 -14 -46
0 -57 2 -62 18 -54 9 5 23 7 30 5 6 -3 12 2 12 11 0 40 59 -5 71 -54 5 -23 7
-22 26 20 11 25 16 47 12 48 -16 6 -9 31 9 37 25 7 44 49 30 63 -12 12 8 118
23 127 4 3 5 15 1 27 -3 14 -2 19 6 14 7 -4 12 -14 12 -22 0 -8 4 -14 9 -14 5
0 12 -16 15 -35 4 -19 13 -41 21 -48 14 -15 24 -112 12 -123 -4 -4 -7 -30 -7
-58 -1 -28 -7 -78 -15 -111 -11 -46 -12 -62 -2 -74 10 -12 9 -14 -5 -8 -22 8
-28 -3 -62 -107 -14 -43 -32 -86 -39 -95 -8 -9 -17 -31 -21 -50 -8 -43 -43
-101 -61 -101 -8 0 -19 9 -25 20 -6 11 -15 18 -21 15 -5 -4 -7 -10 -5 -14 3
-3 -11 -17 -30 -30 -19 -13 -34 -27 -34 -32 0 -5 -9 -9 -21 -9 -13 0 -18 4
-13 13 5 8 4 9 -3 2 -6 -5 -26 -59 -46 -120 -20 -60 -39 -119 -43 -130 -7 -17
-6 -18 8 -7 12 9 33 11 76 6 l59 -6 -12 -36 c-15 -42 -39 -62 -75 -62 -32 0
-70 26 -70 48 0 9 -32 -48 -71 -128 -39 -80 -74 -147 -78 -150 -3 -3 -6 -210
-6 -460 0 -250 -3 -471 -8 -491 -7 -33 -10 -36 -40 -35 -32 1 -32 2 -39 61 -3
33 -7 96 -9 141 -1 67 -4 81 -18 81 -9 0 -21 -4 -27 -9 -6 -4 -21 -5 -33 0
-21 8 -21 9 13 40 20 18 42 32 51 32 12 0 15 17 15 100 0 55 -4 100 -8 100 -5
0 -17 -7 -28 -15 -33 -25 -44 -18 -44 28 0 39 3 44 43 69 47 30 46 26 50 172
l2 59 -35 -44 c-60 -76 -312 -321 -400 -390 -130 -101 -216 -153 -398 -242
-218 -107 -209 -107 -416 -3 -214 107 -449 265 -567 381 -39 38 -61 53 -73 49
-11 -4 -14 -13 -10 -29 7 -27 -9 -34 -51 -24 l-30 7 32 1 c27 1 30 4 26 22 -4
15 0 27 12 35 17 12 15 17 -31 70 -242 278 -397 577 -480 924 -44 182 -55 286
-61 537 -4 151 -9 240 -15 237 -6 -4 -5 3 1 14 16 30 14 46 -4 28 -8 -8 -15
-20 -15 -27 0 -7 -3 -9 -7 -6 -7 7 16 57 31 68 4 4 3 16 -3 27 -8 15 -8 21 1
24 9 3 11 64 10 229 -1 123 0 236 4 251 6 32 82 85 244 171 324 173 607 256
965 281 91 7 468 -3 560 -14z m1538 -39 c10 -63 4 -73 -51 -76 l-39 -2 2 46
c3 76 12 93 48 89 30 -3 32 -6 40 -57z m-483 41 c0 -19 -23 -32 -37 -21 -20
17 -15 29 12 29 14 0 25 -4 25 -8z m-2640 -32 c0 -5 -4 -10 -10 -10 -5 0 -10
5 -10 10 0 6 5 10 10 10 6 0 10 -4 10 -10z m2711 -19 c13 -11 21 -22 17 -26
-10 -10 -68 18 -68 32 0 19 24 16 51 -6z m554 -15 c26 -17 27 -19 27 -76 0
-19 6 -44 13 -56 7 -11 20 -41 28 -66 9 -25 37 -78 62 -117 46 -71 46 -71 70
-55 14 9 36 14 51 11 17 -3 24 -1 21 7 -3 7 4 18 14 24 16 10 19 9 19 -3 0 -8
5 -15 10 -15 6 0 10 -5 10 -11 0 -6 9 -23 19 -38 22 -31 28 -61 37 -191 4 -72
10 -99 23 -110 10 -8 28 -31 41 -50 13 -19 27 -37 30 -40 3 -3 11 -18 18 -34
9 -21 16 -26 21 -17 4 6 14 11 21 9 29 -6 40 184 21 382 -7 78 -6 100 6 125
l16 29 21 -27 c12 -15 30 -53 40 -85 10 -31 30 -88 43 -127 14 -38 29 -86 35
-105 6 -19 15 -41 21 -48 17 -22 20 -236 4 -324 l-13 -78 103 0 103 0 0 97 c0
53 2 94 4 92 4 -4 15 -119 16 -166 l0 -23 178 3 c98 2 184 7 190 11 15 9 16
46 2 46 -19 0 -10 26 10 27 17 2 20 -4 20 -38 0 -30 4 -39 18 -39 9 0 28 -3
40 -7 21 -5 23 -4 13 13 -5 10 -13 49 -16 87 l-7 67 -38 0 c-48 0 -59 17 -55
83 4 55 6 60 37 62 17 1 23 9 25 29 1 14 -2 24 -6 22 -4 -3 -7 19 -8 47 0 29
-8 90 -17 137 -28 140 -36 204 -26 214 10 10 2 37 -14 48 -15 10 0 22 19 15 8
-4 15 -18 15 -32 0 -14 5 -25 11 -25 5 0 7 5 3 12 -4 6 -3 8 4 4 6 -3 14 -21
17 -39 4 -17 11 -37 16 -43 8 -10 22 -79 70 -351 6 -35 17 -64 25 -67 16 -6
19 -42 4 -51 -14 -8 -12 -285 1 -285 6 0 8 -49 7 -117 l-3 -118 -28 -5 c-16
-3 -33 -15 -40 -30 -8 -16 -21 -25 -35 -24 -12 0 -164 1 -337 2 l-315 2 0 25
c0 14 -4 25 -10 25 -6 0 -10 -30 -10 -70 0 -40 4 -70 10 -70 6 0 10 9 10 20 0
19 7 20 93 20 206 0 484 12 513 22 25 9 35 8 57 -7 25 -16 27 -23 27 -80 0
-38 -5 -66 -12 -72 -8 -6 -140 -8 -345 -5 l-333 4 0 24 c0 21 -5 24 -39 24
-29 0 -40 4 -44 19 -4 16 -10 18 -46 11 -27 -5 -44 -3 -50 4 -15 18 -24 65
-16 83 5 10 9 25 11 33 2 8 8 16 13 18 17 6 13 21 -14 50 -24 26 -25 26 -25 5
0 -12 -4 -25 -10 -28 -5 -3 -14 -24 -21 -47 -6 -23 -23 -54 -38 -69 -22 -21
-27 -34 -23 -58 3 -23 0 -31 -11 -31 -9 0 -19 5 -22 10 -9 15 -25 2 -25 -20 0
-10 -7 -20 -15 -24 -8 -3 -15 -14 -15 -25 0 -11 -6 -24 -14 -28 -8 -4 -16 -17
-19 -28 -3 -11 -4 11 -1 48 2 38 7 74 11 80 4 7 8 53 9 102 1 50 6 119 12 155
6 35 8 67 3 70 -4 3 -11 13 -14 24 -5 12 -11 15 -20 9 -6 -5 -32 -15 -57 -22
-25 -8 -51 -15 -59 -17 -8 -3 -11 -7 -8 -11 3 -3 0 -21 -8 -40 -8 -19 -12 -40
-8 -47 4 -6 -1 -5 -10 3 -9 7 -17 20 -17 28 0 24 -32 71 -53 77 -13 3 -17 0
-13 -10 3 -8 1 -14 -4 -14 -6 0 -10 -12 -10 -27 0 -57 -10 -72 -43 -70 -29 2
-32 -1 -37 -33 -4 -31 -10 -36 -42 -44 -27 -7 -41 -6 -52 4 -18 14 -22 70 -5
70 5 0 8 3 6 8 -3 4 6 8 19 8 57 4 57 4 50 132 -8 150 -7 145 -18 159 -6 7 -6
19 1 31 5 10 10 87 10 169 0 83 5 171 10 195 36 162 45 277 24 319 -7 13 -19
60 -28 104 -8 44 -20 82 -25 83 -6 2 -10 8 -10 12 0 5 -11 21 -25 36 -26 28
-33 71 -15 104 12 23 77 21 115 -4z m-633 -5 c4 -3 -16 -4 -45 -3 -29 2 -56 8
-62 14 -11 11 95 1 107 -11z m-166 2 c-27 -2 -55 -10 -62 -16 -38 -34 -48 -39
-79 -41 -20 -2 -40 3 -46 10 -9 11 -5 11 22 4 28 -8 37 -6 59 14 33 31 45 35
105 33 l50 -1 -49 -3z m-2539 -58 c-28 -25 -54 -34 -42 -15 3 6 13 10 21 10 8
0 17 7 20 15 4 8 11 15 18 15 6 0 -2 -12 -17 -25z m2662 -14 c7 -5 11 -14 7
-19 -9 -15 -36 -4 -36 14 0 16 9 18 29 5z m144 -93 c-7 -79 -13 -87 -13 -18 0
39 -5 56 -17 66 -16 12 -16 13 9 14 26 0 26 0 21 -62z m61 33 c3 -4 -6 -6 -19
-3 -14 2 -25 6 -25 8 0 8 39 4 44 -5z m721 -11 c3 -5 0 -7 -8 -4 -22 8 -39
-21 -35 -63 2 -30 7 -38 23 -38 14 0 21 8 23 25 6 42 22 48 22 8 0 -46 -21
-65 -58 -52 -24 8 -27 16 -30 58 -2 26 2 54 9 62 13 16 45 19 54 4z m603 -62
c-3 -83 -21 -98 -26 -23 -2 27 -10 57 -18 66 -16 18 -8 27 29 28 16 1 18 -7
15 -71z m-1051 40 c-3 -8 -6 -5 -6 6 -1 11 2 17 5 13 3 -3 4 -12 1 -19z m1552
-40 c1 -16 -4 -28 -12 -28 -8 0 -11 14 -8 48 3 36 6 42 12 27 4 -11 8 -32 8
-47z m-4894 -20 c-8 -24 -16 -52 -18 -63 -3 -14 -5 -12 -6 8 -1 27 23 97 33
97 3 0 -1 -19 -9 -42z m3345 26 c0 -8 -5 -12 -10 -9 -6 4 -8 11 -5 16 9 14 15
11 15 -7z m-3445 -14 c3 -5 15 -10 26 -10 15 0 19 -7 18 -32 -1 -31 -2 -31 -8
-8 -4 14 -14 25 -23 25 -8 0 -22 6 -30 13 -8 6 -19 8 -23 4 -5 -4 -5 -1 -1 6
9 14 32 16 41 2z m-112 -37 c-7 -2 -19 -2 -25 0 -7 3 -2 5 12 5 14 0 19 -2 13
-5z m147 -79 c0 -21 -4 -33 -10 -29 -5 3 -10 19 -10 36 0 16 5 29 10 29 6 0
10 -16 10 -36z m-206 -60 c12 -5 16 -19 15 -58 -1 -76 -9 -91 -46 -92 -38 -2
-35 9 8 31 23 12 29 22 29 48 0 34 -15 57 -36 57 -6 0 -16 -24 -21 -52 l-10
-53 -2 57 c-1 46 2 57 17 61 27 7 29 7 46 1z m3391 -14 c7 -12 -20 -60 -34
-60 -5 0 -20 9 -35 21 -21 17 -24 24 -15 35 13 16 75 19 84 4z m-3225 -54 c0
-2 -7 -7 -16 -10 -8 -3 -12 -2 -9 4 6 10 25 14 25 6z m-826 -32 c9 -23 8 -24
-14 -24 -19 0 -27 20 -13 33 11 11 20 8 27 -9z m475 -38 c-6 -20 -9 -51 -7
-69 3 -29 6 -32 35 -32 24 0 29 -3 21 -12 -15 -18 -65 -16 -72 3 -9 23 -7 70
3 96 5 13 12 32 15 42 11 35 16 10 5 -28z m-249 -16 c11 -11 20 -29 20 -39 0
-11 8 -22 19 -26 10 -3 18 -11 18 -18 0 -7 1 -25 1 -41 l2 -28 20 23 19 24 2
-25 c1 -14 1 -28 0 -32 -1 -11 17 -10 23 0 3 5 -2 21 -10 37 -17 32 -13 60 11
90 16 20 16 20 10 -3 -8 -27 10 -85 31 -103 11 -9 18 -8 34 6 23 21 39 13 20
-10 -11 -13 -10 -14 4 -9 11 4 16 1 16 -10 0 -9 5 -16 10 -16 6 0 10 -12 10
-27 0 -33 26 -63 56 -63 13 0 28 -9 34 -20 7 -14 7 -20 0 -20 -5 0 -10 4 -10
9 0 5 -13 12 -29 16 -32 7 -65 39 -76 73 -3 12 -10 20 -15 17 -5 -3 -25 -6
-45 -7 -33 -1 -36 -4 -41 -40 -7 -42 -27 -53 -22 -11 2 14 -2 28 -9 30 -16 6
-21 -87 -9 -144 10 -45 2 -68 -14 -43 -6 9 -10 10 -10 3 0 -6 5 -15 10 -18 6
-3 10 -18 10 -32 0 -19 -4 -24 -16 -19 -8 3 -12 2 -9 -4 3 -6 1 -10 -4 -10 -6
0 -11 4 -11 9 0 5 -8 8 -17 6 -10 -1 -23 2 -30 7 -19 15 -30 -19 -37 -112 -8
-103 -14 -130 -32 -130 -8 0 -14 5 -14 10 0 19 -21 10 -30 -14 -5 -13 -14 -27
-20 -31 -15 -9 -60 -101 -60 -122 0 -11 -3 -14 -10 -7 -11 11 16 101 39 128 8
9 10 16 5 16 -5 0 -4 4 1 8 50 36 78 106 56 141 -7 11 -13 6 -26 -20 -12 -23
-14 -34 -6 -37 14 -5 15 -32 1 -32 -5 0 -10 6 -10 13 -1 6 -10 -5 -21 -26 -15
-29 -23 -36 -33 -28 -16 13 -27 4 -19 -16 3 -8 -6 -4 -21 10 -23 22 -26 32
-26 92 0 52 3 66 13 62 10 -4 13 2 9 19 -2 14 -1 24 4 23 34 -6 45 2 42 30 -1
16 3 35 10 43 9 12 8 19 -9 36 -24 27 -36 28 -42 5 -3 -13 -5 -10 -6 7 -1 14
-8 36 -15 49 -14 25 -16 13 -33 -171 -3 -38 -10 -65 -15 -62 -5 3 -7 13 -3 21
8 21 -5 84 -16 77 -5 -3 -9 5 -9 18 0 13 -7 32 -15 42 -17 22 -20 72 -6 80 5
4 12 0 14 -6 3 -8 6 -7 6 4 1 9 9 21 19 27 15 9 14 10 -5 8 -13 -1 -23 -6 -23
-11 0 -5 -3 -7 -6 -4 -3 4 -1 15 5 27 6 11 12 31 13 45 2 19 8 26 23 26 14 0
16 -3 8 -8 -20 -13 44 -94 95 -121 31 -17 29 5 -3 35 -14 13 -25 31 -25 40 0
13 3 12 18 -6 16 -20 20 -20 47 -9 17 7 43 22 59 33 21 14 31 16 34 8 2 -7 10
-12 18 -12 12 0 15 4 14 25 0 3 8 20 17 38 l18 32 3 -37 c2 -21 8 -38 14 -38
6 0 8 9 5 20 -3 11 -2 18 2 16 3 -2 7 21 8 52 2 65 -12 82 -66 80 -54 -2 -74
45 -39 90 16 18 55 15 78 -8z m5132 -47 c11 -13 14 -31 9 -67 -7 -58 -27 -76
-65 -58 -24 11 -26 17 -25 61 3 65 6 69 60 80 3 0 13 -7 21 -16z m-5995 -25
c-3 -7 -5 -2 -5 12 0 14 2 19 5 13 2 -7 2 -19 0 -25z m1269 -10 c-3 -13 -6
-29 -6 -36 0 -7 -4 -10 -10 -7 -11 7 -14 48 -3 58 14 15 25 6 19 -15z m-681
-64 c-2 -44 -15 -64 -42 -64 -7 0 -13 7 -13 15 0 8 7 15 15 15 10 0 15 10 15
34 0 19 3 42 6 51 11 27 20 0 19 -51z m-598 14 c-3 -7 -5 -2 -5 12 0 14 2 19
5 13 2 -7 2 -19 0 -25z m1543 12 c0 -5 -7 -10 -15 -10 -8 0 -15 5 -15 10 0 6
7 10 15 10 8 0 15 -4 15 -10z m5518 -64 c-3 -27 -7 -30 -36 -31 -26 0 -37 6
-50 27 -19 32 -15 38 30 48 42 9 60 -5 56 -44z m-5794 10 c24 4 38 1 50 -11 9
-10 14 -20 11 -23 -3 -4 -10 -1 -14 6 -6 9 -21 12 -49 7 -44 -6 -59 4 -46 33
7 16 7 16 11 -1 4 -14 11 -16 37 -11z m68 -68 c-7 -7 -12 -8 -12 -2 0 14 12
26 19 19 2 -3 -1 -11 -7 -17z m-1355 -20 c-3 -8 -6 -5 -6 6 -1 11 2 17 5 13 3
-3 4 -12 1 -19z m1093 8 c0 -8 -4 -18 -10 -21 -5 -3 -10 3 -10 14 0 12 5 21
10 21 6 0 10 -6 10 -14z m3850 -35 c0 -11 -5 -23 -11 -26 -13 -8 -15 -6 -23
23 -6 18 -3 22 13 22 14 0 21 -6 21 -19z m-3600 -26 c0 -14 -4 -25 -10 -25 -5
0 -10 11 -10 25 0 14 5 25 10 25 6 0 10 -11 10 -25z m3643 -66 c-4 -4 -6 15
-3 44 l5 52 3 -44 c2 -24 0 -47 -5 -52z m-3707 31 c-5 -48 -4 -52 38 -95 44
-46 66 -56 66 -30 0 8 -7 15 -15 15 -25 0 -51 38 -52 77 -2 28 0 33 6 18 l8
-20 5 20 c3 11 6 1 7 -22 1 -44 14 -60 44 -55 19 4 23 -19 7 -49 -16 -29 -30
-24 -85 29 -41 39 -50 54 -55 92 -4 33 -1 48 10 57 8 7 16 13 18 13 1 0 0 -23
-2 -50z m354 5 c-7 -8 -20 -15 -29 -15 -11 1 -8 5 9 15 32 18 35 18 20 0z
m-1343 -87 c-3 -7 -5 -2 -5 12 0 14 2 19 5 13 2 -7 2 -19 0 -25z m1227 -19
c-16 -16 -34 -27 -40 -25 -21 8 -24 -5 -9 -41 17 -40 20 -110 6 -146 -5 -13
-21 -37 -35 -52 -14 -15 -26 -32 -26 -36 0 -5 -5 -9 -10 -9 -6 0 5 23 25 51
40 58 43 93 20 199 -8 36 -14 68 -15 73 0 12 23 8 41 -8 15 -15 19 -13 40 13
13 16 26 25 28 20 2 -5 -9 -23 -25 -39z m-1210 -334 c6 -117 5 -119 -10 -75
-21 61 -28 186 -18 306 l8 99 7 -105 c3 -58 9 -159 13 -225z m4634 223 c-2
-61 -2 -61 -5 -13 -3 27 -9 55 -15 62 -8 10 -6 13 6 13 13 0 16 -11 14 -62z
m-3993 24 c-2 -9 -4 -39 -4 -65 -1 -29 -5 -46 -11 -42 -5 3 -10 25 -10 47 0
27 -6 45 -17 54 -17 12 -16 13 7 22 30 12 39 8 35 -16z m-922 -147 c1 -5 -6
-11 -15 -13 -11 -2 -18 3 -18 13 0 17 30 18 33 0z m67 -15 c0 -39 -15 -39 -16
0 -1 17 3 30 7 30 5 0 9 -13 9 -30z m6769 -47 c-2 -70 -6 -63 -11 20 -2 26 0
47 4 47 5 0 7 -30 7 -67z m-1873 -28 l2 -60 -10 53 c-11 53 -29 67 -56 40 -9
-9 -12 -9 -12 0 0 7 5 12 11 12 5 0 7 5 4 11 -5 7 5 9 26 7 l34 -3 1 -60z
m-4416 -31 c0 -55 -3 -75 -12 -72 -8 3 -12 25 -13 59 0 38 -4 53 -12 52 -7 -2
-13 3 -13 11 0 13 13 20 43 25 4 0 7 -33 7 -75z m-476 7 c-4 -18 3 -36 20 -60
14 -19 26 -41 26 -48 0 -7 14 -20 32 -29 29 -15 33 -15 59 0 27 16 30 16 54 0
29 -19 31 -32 10 -60 -23 -30 -18 -53 13 -60 59 -13 54 -2 54 -122 0 -72 -5
-83 -22 -52 -9 16 -9 25 -1 33 14 14 14 30 1 22 -5 -3 -10 -2 -10 4 0 5 6 11
13 14 22 8 3 15 -26 10 -32 -6 -55 -39 -38 -56 8 -8 14 -8 23 1 9 9 9 12 -1
12 -7 0 -9 5 -6 10 10 16 35 -8 28 -26 -3 -8 0 -20 5 -27 15 -18 5 -50 -20
-66 -18 -11 -19 -10 -13 8 3 12 3 21 -2 21 -12 -1 -59 -40 -48 -40 6 0 17 -17
24 -37 8 -21 18 -41 22 -44 5 -3 16 -32 24 -65 9 -32 24 -66 34 -74 12 -10 21
-34 24 -68 4 -29 15 -69 25 -90 11 -20 25 -49 32 -64 7 -15 26 -43 42 -62 25
-31 34 -35 61 -30 17 3 33 7 35 9 3 2 11 -3 19 -11 17 -17 10 -84 -9 -84 -7 0
-8 -15 -4 -42 l7 -43 -48 54 c-55 62 -72 89 -73 113 0 23 -31 88 -42 88 -4 0
-8 8 -8 18 0 9 -7 25 -14 35 -13 16 -14 15 -21 -15 -4 -18 -10 -104 -14 -190
-3 -86 -8 -159 -11 -161 -6 -6 -30 -10 -47 -8 -10 1 -13 53 -13 226 0 248 2
242 -62 209 l-30 -16 6 39 c11 73 6 146 -12 159 -22 16 -7 32 16 18 12 -8 18
-27 20 -63 3 -53 21 -69 40 -34 11 19 -36 132 -54 133 -7 0 -11 8 -10 17 0 9
-8 22 -19 27 -11 6 -26 15 -34 20 -8 5 -33 10 -55 10 -35 1 -41 4 -44 24 -2
13 -17 32 -34 42 -29 17 -34 17 -60 4 -39 -20 -30 -39 18 -39 35 0 39 -2 36
-23 -2 -16 4 -25 22 -32 28 -10 36 -40 11 -40 -11 0 -14 -9 -13 -32 3 -29 0
-33 -20 -31 -16 2 -25 -4 -32 -22 -11 -29 -22 -31 -40 -10 -9 11 -22 14 -46 9
-32 -6 -34 -4 -34 21 0 18 -6 29 -19 32 -28 7 -34 31 -10 44 16 8 18 13 9 25
-17 19 -5 44 18 37 13 -3 24 4 36 21 15 24 15 28 1 49 -14 22 -14 26 4 48 24
31 12 69 -22 69 -56 0 -62 59 -7 76 45 15 58 45 36 80 -17 24 -17 27 0 45 20
22 36 24 64 7 13 -9 27 -9 47 -2 27 9 28 12 27 82 0 40 3 72 8 72 4 0 8 -18 8
-40 0 -23 5 -40 11 -40 8 0 10 19 6 63 -6 55 -5 60 8 43 8 -10 12 -30 9 -45z
m853 53 c-3 -3 -12 -4 -19 -1 -8 3 -5 6 6 6 11 1 17 -2 13 -5z m173 -13 c0
-25 -30 -36 -48 -17 -19 18 -7 36 24 36 17 0 24 -6 24 -19z m-1539 -17 c27
-33 -24 -70 -55 -39 -12 12 -13 21 -6 36 13 23 43 25 61 3z m1356 -4 c14 -11
30 -17 35 -13 7 4 9 -33 6 -109 -3 -95 -8 -119 -24 -139 -10 -14 -26 -24 -34
-22 -86 12 -91 14 -106 48 -8 21 -14 69 -14 123 0 101 9 117 70 125 19 2 37 5
38 5 2 1 15 -7 29 -18z m4410 -16 c-3 -3 -12 -4 -19 -1 -8 3 -5 6 6 6 11 1 17
-2 13 -5z m-3990 -86 c-3 -7 -5 -2 -5 12 0 14 2 19 5 13 2 -7 2 -19 0 -25z
m3972 8 c8 -10 9 -16 1 -21 -5 -3 -10 -28 -10 -56 0 -27 -4 -49 -10 -49 -5 0
-10 25 -10 55 0 49 -2 55 -21 55 -18 0 -19 2 -9 15 16 19 44 19 59 1z m1530
-93 c0 -46 -3 -61 -9 -48 -4 11 -5 32 -3 47 3 16 0 34 -6 41 -6 8 -8 17 -4 20
17 18 23 2 22 -60z m-1583 43 c10 -10 14 -38 14 -90 0 -61 3 -76 15 -76 22 0
18 -17 -4 -23 -24 -6 -31 0 -31 25 0 23 -17 23 -24 0 -8 -23 -65 -18 -74 7 -3
9 -11 20 -19 24 -22 13 -17 91 8 113 19 17 21 18 30 1 6 -9 14 -17 19 -17 14
0 49 37 43 44 -4 3 -3 6 1 6 4 0 14 -6 22 -14z m-3903 -21 c-3 -9 -8 -14 -10
-11 -3 3 -2 9 2 15 9 16 15 13 8 -4z m-808 -27 c2 -7 0 -38 -4 -68 l-9 -55 -1
53 c-1 39 -5 52 -16 52 -16 0 -20 12 -8 23 11 11 33 8 38 -5z m4361 -45 c4
-19 13 -37 21 -40 13 -5 13 -7 -1 -15 -9 -5 -16 -23 -17 -41 l-1 -32 -10 35
c-6 19 -13 29 -15 23 -3 -7 -11 -13 -19 -13 -8 0 -14 -5 -14 -11 0 -6 -12 -9
-27 -7 -38 4 -54 49 -29 77 24 27 53 32 73 13 15 -16 16 -14 11 26 -5 36 -4
41 8 31 7 -6 16 -27 20 -46z m-5221 -73 c3 -5 17 -10 30 -10 13 0 27 5 30 10
9 14 35 12 39 -2 3 -7 7 -25 10 -40 5 -23 12 -28 35 -28 39 0 50 -28 19 -51
-22 -17 -22 -18 -4 -38 25 -27 14 -49 -26 -53 -27 -2 -33 -7 -33 -26 -1 -34
-28 -46 -50 -22 -21 24 -51 26 -59 5 -9 -25 -46 -19 -46 8 0 29 -18 47 -47 47
-30 0 -40 26 -19 49 20 22 20 35 2 51 -22 17 -8 40 24 40 27 0 55 21 44 33 -4
3 -4 13 -1 22 7 17 42 21 52 5z m5892 -37 c-3 -10 -5 -2 -5 17 0 19 2 27 5 18
2 -10 2 -26 0 -35z m1105 2 c0 -5 -5 -11 -11 -13 -6 -2 -11 4 -11 13 0 9 5 15
11 13 6 -2 11 -8 11 -13z m158 -70 c0 -37 -4 -65 -10 -65 -6 0 -9 25 -8 58 1
39 -2 56 -10 55 -7 -2 -12 2 -12 7 0 6 9 10 20 10 18 0 20 -7 20 -65z m-5401
13 c6 -18 7 -28 2 -23 -10 12 -25 55 -18 55 3 0 10 -15 16 -32z m3861 -15 c0
-24 -3 -33 -9 -25 -7 12 -4 62 5 62 2 0 4 -17 4 -37z m-3806 -79 c3 -8 2 -12
-4 -9 -6 3 -10 10 -10 16 0 14 7 11 14 -7z m3094 -141 c-3 -62 -5 -66 -28 -70
-16 -2 -20 0 -12 5 17 11 29 112 13 112 -6 0 -11 5 -11 10 0 6 9 10 20 10 19
0 21 -5 18 -67z m2297 2 l0 -60 -40 0 -40 0 -3 49 c-4 69 1 78 45 74 l38 -3 0
-60z m-1585 25 c0 -16 -4 -30 -8 -30 -5 0 -7 14 -4 30 2 17 6 30 8 30 2 0 4
-13 4 -30z m-3621 -65 c7 -7 -9 -2 -38 11 -28 14 -51 27 -51 29 0 7 75 -26 89
-40z m3243 -18 c1 -20 -1 -39 -5 -43 -4 -4 -7 14 -7 41 0 56 8 57 12 2z
m-3397 14 c7 -12 -22 -41 -40 -41 -15 0 -28 27 -19 41 7 12 51 12 59 0z m4698
-51 c-4 -37 -2 -50 7 -50 7 0 10 -8 7 -20 -3 -11 -1 -20 3 -20 5 0 4 -13 -2
-28 -10 -25 -47 -52 -72 -52 -6 0 -24 -21 -40 -47 -28 -44 -50 -47 -27 -4 16
29 13 56 -8 92 -10 17 -17 39 -14 49 6 22 55 71 74 73 24 4 40 18 50 44 15 39
29 17 22 -37z m-6086 28 c-3 -8 -6 -5 -6 6 -1 11 2 17 5 13 3 -3 4 -12 1 -19z
m5778 -333 l0 -300 -219 -3 c-153 -2 -223 1 -232 9 -11 9 -14 58 -14 239 l0
228 68 66 67 66 165 -2 165 -3 0 -300z m-1365 271 c0 -3 -4 -8 -10 -11 -5 -3
-10 -1 -10 4 0 6 5 11 10 11 6 0 10 -2 10 -4z m-2783 -38 c-3 -8 -6 -5 -6 6
-1 11 2 17 5 13 3 -3 4 -12 1 -19z m2823 -52 c0 -36 -4 -68 -10 -71 -6 -4 -10
15 -10 49 0 49 -2 56 -20 56 -13 0 -18 5 -14 15 4 8 17 15 30 15 23 0 24 -3
24 -64z m2255 -5 c0 -43 -4 -66 -12 -68 -10 -4 -13 11 -13 52 0 35 -4 54 -10
50 -5 -3 -10 3 -10 15 0 16 5 21 23 18 20 -3 22 -8 22 -67z m-5062 -21 c3 -34
2 -47 -3 -35 -8 19 -14 103 -6 94 2 -2 6 -29 9 -59z m-763 14 c0 -8 -4 -12
-10 -9 -5 3 -10 13 -10 21 0 8 5 12 10 9 6 -3 10 -13 10 -21z m787 -146 c-3
-8 -6 -5 -6 6 -1 11 2 17 5 13 3 -3 4 -12 1 -19z m2960 -45 c2 -71 -13 -142
-34 -166 -21 -23 -4 -44 23 -29 28 14 111 26 99 14 -9 -9 -123 -42 -146 -42
-16 0 -10 31 12 61 23 32 34 76 31 124 -1 29 6 95 11 95 2 0 4 -26 4 -57z
m-148 38 c17 -11 24 -100 10 -118 -12 -14 -47 -17 -73 -7 -24 9 -22 109 2 123
21 13 43 13 61 2z m-4849 -21 c0 -5 -4 -10 -9 -10 -6 0 -13 5 -16 10 -3 6 1
10 9 10 9 0 16 -4 16 -10z m5188 -22 c7 -7 12 -31 12 -54 0 -60 -37 -93 -68
-62 -16 16 -16 115 1 121 22 9 43 7 55 -5z m1115 5 c-7 -2 -13 -11 -13 -19 0
-8 -5 -14 -10 -14 -7 0 -7 6 0 20 6 11 16 20 23 19 9 0 9 -2 0 -6z m-4256 -35
c-3 -7 -5 -2 -5 12 0 14 2 19 5 13 2 -7 2 -19 0 -25z m2453 12 c0 -5 -7 -10
-15 -10 -8 0 -15 5 -15 10 0 6 7 10 15 10 8 0 15 -4 15 -10z m15 -40 c3 -5 1
-10 -4 -10 -6 0 -11 5 -11 10 0 6 2 10 4 10 3 0 8 -4 11 -10z m-2577 -100
c117 -62 176 -159 175 -286 -1 -118 -69 -216 -192 -277 -58 -28 -73 -31 -155
-31 -82 -1 -97 2 -157 32 -77 37 -131 92 -166 169 -22 48 -25 65 -21 132 5 85
25 133 81 192 75 80 156 111 282 106 80 -3 97 -7 153 -37z m5175 -82 c7 0 17
-2 22 -2 6 -1 22 -12 38 -26 26 -23 27 -26 27 -136 l0 -112 -34 -16 c-46 -22
-78 -20 -110 5 -25 20 -26 24 -26 130 0 96 2 111 20 129 11 11 25 20 30 20 6
0 11 26 12 58 l2 57 3 -52 c3 -31 9 -54 16 -55z m-2293 -20 c0 -85 -1 -91 -14
-67 -17 34 -25 109 -11 110 5 1 -1 4 -14 8 -23 6 -23 7 -7 24 37 37 46 23 46
-75z m336 -83 c-13 -34 -28 -2 -24 51 4 41 1 54 -9 54 -19 0 -16 18 5 22 14 3
19 -7 26 -54 5 -31 6 -64 2 -73z m-3029 33 c-3 -8 -6 -5 -6 6 -1 11 2 17 5 13
3 -3 4 -12 1 -19z m2557 -8 c29 -10 33 -34 14 -75 -9 -21 -18 -25 -53 -25 -47
0 -65 13 -65 50 0 34 10 47 40 53 14 2 28 5 32 6 4 0 18 -3 32 -9z m153 -22
c-3 -7 -5 -2 -5 12 0 14 2 19 5 13 2 -7 2 -19 0 -25z m-2659 -73 c-3 -3 -9 2
-12 12 -6 14 -5 15 5 6 7 -7 10 -15 7 -18z m3023 -38 c7 -63 -4 -127 -22 -127
-5 0 -9 -33 -9 -72 0 -97 -9 -148 -26 -148 -10 0 -14 15 -14 54 0 35 -5 56
-12 59 -10 3 -10 7 1 20 9 11 11 31 7 62 -3 25 -9 65 -12 90 -4 33 -2 52 10
70 14 21 19 23 46 14 16 -6 31 -16 31 -22z m-2991 7 c0 -8 4 -12 10 -9 6 3 7
-1 4 -10 -5 -12 -9 -13 -20 -4 -16 13 -19 39 -4 39 6 0 10 -7 10 -16z m2747
-21 c-4 -3 -2 -12 4 -20 9 -10 8 -17 -1 -28 -15 -18 -31 -19 -54 -2 -23 17
-11 45 22 50 15 2 29 5 31 6 2 0 1 -2 -2 -6z m53 -33 c0 -5 -2 -10 -4 -10 -3
0 -8 5 -11 10 -3 6 -1 10 4 10 6 0 11 -4 11 -10z m-2737 -69 c-9 -12 -23 18
-16 35 6 17 8 17 13 -6 4 -14 5 -27 3 -29z m175 37 c-3 -7 -13 -15 -23 -16
-15 -4 -16 -2 -4 12 17 19 32 21 27 4z m4670 -100 c-1 -58 -2 -59 -5 -15 -3
30 -10 50 -19 54 -17 6 -9 23 12 23 11 0 14 -14 12 -62z m-4628 20 c-1 -29
-25 -74 -33 -61 -3 5 -2 15 4 23 5 8 9 25 9 38 0 12 5 22 10 22 6 0 10 -10 10
-22z m-175 -8 c-2 -4 7 -12 22 -19 14 -6 23 -14 20 -17 -7 -8 -67 34 -67 46 0
5 7 7 15 4 8 -4 13 -9 10 -14z m2552 -30 c10 -21 13 -22 19 -7 4 10 17 17 34
17 16 0 31 4 34 9 10 15 41 6 44 -13 4 -20 -25 -56 -44 -56 -15 0 -82 -38
-102 -57 -14 -14 -41 -17 -66 -7 -20 8 -23 113 -4 132 21 21 71 10 85 -18z
m-3894 14 c11 -11 -3 -24 -18 -18 -8 4 -12 10 -9 15 6 11 18 12 27 3z m1472
-77 c18 -14 21 -14 31 4 9 18 12 19 23 5 11 -14 11 -16 -4 -16 -11 0 -15 -5
-12 -15 5 -11 1 -12 -18 -5 -35 13 -64 33 -70 48 -5 14 13 6 50 -21z m280 13
c3 -5 1 -10 -4 -10 -6 0 -11 5 -11 10 0 6 2 10 4 10 3 0 8 -4 11 -10z m1484
-44 c-2 -1 -26 -20 -52 -41 l-48 -38 21 -22 c27 -29 17 -35 -66 -40 -36 -2
-80 -9 -98 -15 -20 -6 -83 -9 -160 -6 -113 4 -131 7 -162 28 -18 13 -34 28
-34 34 0 6 39 16 93 24 50 7 165 30 254 52 88 21 177 38 197 36 19 -1 39 1 43
6 4 4 9 2 11 -4 2 -6 2 -12 1 -14z m2908 -163 c-2 -16 -4 -5 -4 22 0 28 2 40
4 28 2 -13 2 -35 0 -50z m-2306 2 c-4 -65 -11 -72 -11 -12 0 26 -4 47 -10 47
-5 0 -10 5 -10 11 0 6 8 9 17 7 14 -3 17 -12 14 -53z m368 12 c6 -8 7 -17 3
-21 -4 -4 -7 -65 -7 -134 0 -124 -1 -127 -22 -130 -22 -3 -23 0 -23 66 0 108
-10 163 -29 160 -30 -5 -23 29 11 51 39 24 52 26 67 8z m18 -89 c-2 -13 -4 -3
-4 22 0 25 2 35 4 23 2 -13 2 -33 0 -45z m-2347 28 c0 -2 -7 -7 -16 -10 -8 -3
-12 -2 -9 4 6 10 25 14 25 6z m301 -115 c-8 -5 -20 -7 -28 -4 -21 8 -15 13 15
13 20 0 23 -3 13 -9z m105 -1 c20 0 33 -3 30 -8 -6 -11 -96 -2 -96 10 0 6 7 7
16 4 9 -3 31 -6 50 -6z m174 0 c0 -5 -24 -10 -52 -10 -38 0 -49 3 -38 10 20
13 90 13 90 0z m163 -7 c-7 -2 -19 -2 -25 0 -7 3 -2 5 12 5 14 0 19 -2 13 -5z
m-1713 -23 c0 -5 -2 -10 -4 -10 -3 0 -8 5 -11 10 -3 6 -1 10 4 10 6 0 11 -4
11 -10z m2927 -52 c-2 -13 -4 -5 -4 17 -1 22 1 32 4 23 2 -10 2 -28 0 -40z
m-2921 10 c10 -13 12 -18 5 -11 -10 8 -20 9 -33 2 -20 -11 -24 1 -6 19 15 15
12 16 34 -10z m5288 -4 c43 -21 55 -61 22 -74 -30 -11 -71 -2 -92 21 -15 17
-16 20 0 44 19 30 24 30 70 9z m-7000 -43 c3 -5 -20 -11 -52 -15 -61 -7 -122
1 -122 15 0 12 167 12 174 0z m6388 -36 c54 -40 58 -98 8 -125 -24 -13 -106
19 -116 45 -9 21 -49 41 -104 50 -25 4 -53 13 -63 20 -36 25 9 35 133 33 97
-3 119 -6 142 -23z m-4632 5 c0 -5 -7 -10 -15 -10 -8 0 -15 5 -15 10 0 6 7 10
15 10 8 0 15 -4 15 -10z m-1408 -43 c58 -29 77 -74 51 -118 -32 -53 -103 -65
-151 -24 -54 45 -36 119 36 141 20 7 38 12 38 13 1 1 13 -5 26 -12z m1467 -8
c34 -28 19 -36 -18 -9 -17 12 -31 23 -31 26 0 11 27 1 49 -17z m3421 -19 c0
-5 -7 -10 -15 -10 -8 0 -15 5 -15 10 0 6 7 10 15 10 8 0 15 -4 15 -10z m-3334
-48 c-4 -3 -14 2 -24 12 -16 18 -16 18 6 6 13 -6 21 -14 18 -18z m119 -22 c4
-6 -6 -10 -22 -9 -25 0 -26 1 -8 9 11 5 21 9 22 9 1 1 5 -3 8 -9z m2555 -125
c18 -21 5 -47 -22 -43 -26 3 -37 36 -16 49 18 12 24 11 38 -6z m-4981 -81
c-48 -35 -107 -30 -64 6 17 14 76 29 88 22 5 -2 -6 -15 -24 -28z m128 -67 c4
-6 0 -8 -10 -4 -10 3 -17 2 -17 -3 0 -5 -7 -6 -17 -3 -11 4 -14 3 -9 -5 4 -7
-4 -14 -21 -18 -15 -3 -34 -7 -40 -9 -21 -7 8 32 32 43 26 13 74 12 82 -1z
m7223 -7 c11 -7 12 -12 3 -21 -13 -13 -33 -4 -33 17 0 16 9 18 30 4z m-3356
-42 c3 -13 2 -24 -3 -26 -10 -3 -4 -74 10 -109 8 -23 13 -24 47 -18 86 17 166
23 326 24 93 1 173 4 177 6 9 6 119 -19 180 -40 42 -15 100 -27 217 -44 67 -9
82 -23 62 -58 -15 -25 -44 -45 -119 -78 -20 -9 -52 -25 -71 -35 -80 -43 -327
-134 -360 -133 -19 1 -132 3 -250 5 -146 3 -225 9 -245 17 -41 18 -235 19
-311 2 -57 -12 -68 -11 -165 12 -57 14 -149 33 -204 42 -55 9 -114 23 -132 31
-17 8 -37 14 -43 14 -10 0 -10 3 -1 14 9 11 9 16 -1 23 -54 34 -211 113 -227
113 -26 0 9 29 48 39 72 20 238 38 311 35 116 -6 144 -10 241 -40 l90 -28 112
22 c173 32 237 41 252 36 9 -4 16 6 20 28 4 18 13 36 19 40 7 5 8 8 0 8 -15 0
-16 100 -1 100 7 0 6 4 -3 10 -13 8 -13 10 1 10 9 0 19 -10 23 -22z m1409 5
c9 -9 -22 -43 -39 -43 -11 0 -11 5 -2 25 11 24 28 32 41 18z m-1453 -7 c0 -2
-7 -7 -16 -10 -8 -3 -12 -2 -9 4 6 10 25 14 25 6z m1380 -36 c8 -5 10 -10 4
-10 -6 0 -14 -19 -18 -41 -4 -23 -9 -39 -13 -35 -3 3 -12 1 -20 -5 -7 -6 -13
-8 -13 -3 0 5 -5 2 -10 -6 -7 -11 -10 -6 -10 20 0 26 3 31 10 20 8 -13 10 -12
10 3 0 19 28 67 39 67 3 0 13 -5 21 -10z m-3278 -301 c-1 -150 -5 -276 -10
-281 -9 -9 -18 -2 -48 35 -6 7 -14 35 -17 62 -7 50 -10 304 -5 339 5 29 -19
30 -47 2 -34 -34 -61 -36 -43 -3 7 12 17 25 21 28 4 3 7 11 5 16 -2 6 2 10 7
9 6 0 9 -10 7 -21 -2 -14 0 -17 9 -8 6 6 9 19 7 29 -5 26 33 54 72 54 26 0 31
3 25 18 -5 13 -3 14 6 5 8 -8 11 -86 11 -284z m3818 230 c0 -6 -4 -7 -10 -4
-5 3 -10 11 -10 16 0 6 5 7 10 4 6 -3 10 -11 10 -16z m-3565 -56 c28 -8 59
-19 70 -24 18 -8 72 -30 85 -34 3 -1 32 -14 65 -29 33 -15 73 -33 89 -40 16
-7 25 -15 20 -18 -9 -6 -266 93 -289 111 -5 4 -35 16 -65 27 -103 34 -85 40
25 7z m3430 -73 c4 -41 9 -78 12 -82 2 -5 -1 -8 -6 -8 -6 0 -11 7 -11 15 0 8
-4 15 -10 15 -6 0 -10 34 -10 83 1 99 15 86 25 -23z m122 -72 c-3 -7 -5 -2 -5
12 0 14 2 19 5 13 2 -7 2 -19 0 -25z m-550 -40 c-3 -8 -6 -5 -6 6 -1 11 2 17
5 13 3 -3 4 -12 1 -19z m-139 -220 c-6 -18 -28 -21 -28 -4 0 9 7 16 16 16 9 0
14 -5 12 -12z"/>
<path d="M919 6763 c-52 -22 -35 -57 28 -60 36 -2 46 2 59 22 9 14 23 25 30
25 16 0 19 19 4 21 -48 5 -98 2 -121 -8z"/>
<path d="M5302 5454 c-18 -19 -12 -79 8 -79 10 0 16 12 18 39 4 44 -7 61 -26
40z"/>
<path d="M3670 4853 c-185 -11 -478 -69 -671 -133 -151 -50 -242 -89 -362
-158 l-97 -56 2 -256 3 -255 42 1 c35 1 41 -2 31 -13 -7 -9 -22 -11 -46 -7
l-35 7 6 -269 c4 -185 11 -292 22 -344 9 -41 17 -91 19 -111 10 -104 91 -342
168 -494 48 -95 151 -259 169 -271 5 -3 9 7 10 23 1 62 9 86 35 110 24 22 34
25 81 21 38 -3 60 -11 78 -28 24 -23 25 -28 25 -145 0 -109 -2 -125 -21 -149
-24 -31 -20 -43 9 -27 11 6 32 40 48 76 16 36 34 65 41 65 16 0 54 55 64 94 7
26 8 24 5 -14 -4 -38 -11 -51 -45 -80 -23 -20 -41 -39 -41 -44 0 -18 -51 -116
-60 -116 -23 0 -7 -32 36 -72 26 -24 52 -48 58 -53 71 -67 308 -220 436 -284
58 -29 113 -57 123 -62 50 -27 520 268 687 431 51 50 150 163 150 172 0 4 -8
8 -19 8 -10 0 -24 6 -30 14 -7 8 -31 18 -54 21 -43 7 -97 33 -97 47 0 13 9 9
33 -12 18 -17 30 -20 78 -15 35 3 60 1 64 -5 4 -6 11 -7 17 -4 6 4 8 2 5 -3
-4 -6 1 -14 11 -18 20 -8 58 35 71 80 6 25 4 32 -13 42 -32 18 -56 16 -56 -6
0 -26 -25 -44 -50 -36 -21 7 -25 29 -21 106 2 36 -20 61 -34 38 -4 -5 -10 -7
-15 -4 -5 3 -11 1 -15 -5 -3 -5 -17 -10 -31 -10 -14 0 -44 -11 -67 -24 -23
-14 -66 -32 -95 -42 -35 -11 -51 -21 -48 -29 8 -21 -86 -40 -125 -26 -17 6
-48 9 -68 6 -85 -12 -140 -12 -145 0 -6 16 13 35 35 35 10 0 21 5 24 10 4 6
16 8 26 5 11 -4 25 -2 32 3 7 5 27 13 45 17 17 3 54 22 82 41 38 26 60 34 95
34 25 0 45 5 45 10 0 7 -147 9 -432 7 -417 -4 -435 -5 -481 -25 -62 -28 -117
-70 -118 -91 0 -9 -3 -11 -5 -4 -10 24 18 54 84 88 65 33 66 34 32 35 -133 3
-228 14 -255 29 -43 24 -65 74 -65 147 l0 61 -47 23 c-75 37 -78 42 -75 99 3
38 7 48 18 44 8 -3 28 0 44 7 23 10 33 10 45 0 12 -10 15 -1 17 62 l3 73 103
3 c80 2 102 6 102 17 0 11 -22 15 -102 17 -110 3 -139 19 -51 28 60 6 89 24
45 28 -15 1 -36 4 -47 6 -11 3 -28 5 -37 5 -15 1 -18 10 -18 50 0 56 -10 90
-36 115 -11 12 -13 21 -7 27 7 7 16 4 26 -11 l15 -22 17 33 c26 51 56 79 84
79 14 0 31 4 38 8 7 5 12 68 15 197 3 186 4 191 35 262 56 130 141 216 278
283 104 50 180 64 308 57 217 -12 398 -118 498 -292 52 -90 62 -136 68 -323
l6 -174 38 -13 c21 -7 48 -21 59 -32 13 -11 22 -14 25 -7 13 38 31 47 100 51
64 5 72 3 82 -16 6 -11 10 -24 10 -28 -1 -4 1 -16 6 -27 5 -11 4 -26 -2 -36
-6 -9 -9 -38 -6 -64 5 -45 4 -48 -14 -42 -25 8 -96 -42 -117 -83 -14 -26 -14
-30 0 -42 9 -7 14 -25 12 -43 -2 -25 -8 -32 -30 -34 -27 -3 -28 -5 -28 -71 0
-109 7 -131 41 -131 23 0 36 -9 61 -45 32 -46 97 -85 141 -85 13 0 28 -5 33
-10 7 -7 11 -1 11 21 0 35 15 49 55 49 19 0 26 -4 22 -14 -3 -8 -1 -17 5 -21
6 -3 11 1 11 10 0 9 4 14 8 11 9 -5 73 182 96 279 11 50 23 123 40 261 1 12
-3 21 -11 21 -7 0 -13 -6 -13 -13 0 -16 -61 -37 -73 -25 -13 13 0 31 22 31 10
0 32 14 50 30 31 30 31 30 34 147 2 137 2 138 -93 103 -55 -21 -58 -23 -50
-46 6 -15 6 -24 0 -24 -16 0 -80 70 -80 87 0 9 -7 25 -17 35 -27 30 1 20 48
-17 49 -39 61 -41 112 -20 20 8 48 15 62 15 22 0 25 4 25 39 0 65 -11 101 -30
101 -10 0 -23 7 -30 15 -15 18 -50 185 -39 185 4 0 5 9 2 20 -4 15 0 20 16 20
12 0 19 5 16 10 -3 6 -16 10 -29 10 -19 0 -23 6 -24 38 -1 27 4 41 18 50 16
10 23 8 44 -13 34 -34 47 -32 36 5 -5 17 -5 28 0 25 14 -9 20 24 20 111 l0 84
-56 36 c-60 39 -221 117 -324 157 -323 128 -683 182 -1050 160z m-225 -279 c8
-4 23 -20 31 -36 14 -27 14 -31 -2 -49 -23 -26 -80 -26 -94 0 -29 55 10 106
65 85z m-430 -274 c1 -328 -5 -430 -22 -430 -15 0 -15 4 -15 77 1 47 -2 55
-29 73 -36 26 -38 43 -4 34 14 -3 25 -2 25 3 0 15 -22 32 -35 27 -9 -4 -12 42
-14 188 -2 251 -1 238 -15 238 -6 0 -2 7 9 16 12 9 36 14 60 12 l40 -3 0 -235z
m2029 34 c9 -3 16 -12 16 -20 0 -11 -7 -13 -27 -8 -36 9 -40 13 -23 24 18 12
15 11 34 4z m-477 -166 c-3 -8 -6 -5 -6 6 -1 11 2 17 5 13 3 -3 4 -12 1 -19z
m52 -105 c2 -2 -3 -3 -11 -3 -9 0 -19 7 -22 16 -6 15 -4 15 11 3 10 -7 20 -15
22 -16z m56 -40 l18 -28 -21 19 c-12 11 -22 23 -22 28 0 14 7 9 25 -19z
m-1719 -99 c1 -44 1 -45 -4 -9 -4 36 -5 38 -12 15 -7 -22 -8 -20 -9 13 -1 27
3 37 12 35 7 -3 12 -24 13 -54z m-143 -44 c9 -11 13 -20 7 -20 -5 0 -14 9 -20
20 -6 11 -9 20 -8 20 2 0 11 -9 21 -20z m119 -2 c-7 -7 -12 -8 -12 -2 0 6 3
14 7 17 3 4 9 5 12 2 2 -3 -1 -11 -7 -17z m-71 -45 c13 -17 13 -17 -6 -3 -11
8 -22 16 -24 17 -2 2 0 3 6 3 6 0 17 -8 24 -17z m159 -24 c9 -6 -7 -7 -40 -3
-30 4 -59 11 -65 16 -12 12 83 0 105 -13z m-339 -109 c6 -30 14 -59 19 -65 4
-5 10 -23 14 -38 4 -15 11 -25 16 -22 5 3 10 -5 12 -17 2 -16 9 -22 22 -21 23
2 34 -11 76 -90 33 -60 30 -71 -18 -64 -29 4 -39 15 -55 62 -15 42 -36 58 -38
28 0 -10 -3 -13 -6 -5 -2 6 -9 10 -14 6 -5 -3 -9 3 -9 12 0 10 -6 25 -14 33
-8 9 -28 44 -45 77 -40 78 -43 155 -9 191 l23 24 8 -28 c4 -15 12 -53 18 -83z
m409 60 c12 -16 19 -30 16 -30 -2 0 -14 14 -26 30 -12 17 -19 30 -16 30 2 0
14 -13 26 -30z m1400 -90 c0 -5 -4 -10 -10 -10 -5 0 -10 5 -10 10 0 6 5 10 10
10 6 0 10 -4 10 -10z m-1527 -97 c-7 -2 -19 -2 -25 0 -7 3 -2 5 12 5 14 0 19
-2 13 -5z m1892 -9 c18 -12 25 -25 25 -50 0 -18 5 -36 10 -39 6 -3 10 -13 10
-21 0 -25 -38 3 -53 39 -18 42 -29 87 -22 87 3 0 17 -7 30 -16z m-1865 -54 c0
-5 -5 -10 -11 -10 -5 0 -7 5 -4 10 3 6 8 10 11 10 2 0 4 -4 4 -10z m-148 -172
c-8 -8 -9 -4 -5 13 4 13 8 18 11 10 2 -7 -1 -18 -6 -23z m2155 -20 c-17 -33
-29 -44 -50 -46 -18 -2 -29 2 -34 14 -8 21 51 73 84 74 l22 0 -22 -42z m-2367
-33 c0 -8 -7 -15 -15 -15 -8 0 -15 7 -15 15 0 8 7 15 15 15 8 0 15 -7 15 -15z
m945 -664 c-4 -18 -2 -32 5 -36 6 -4 9 -17 6 -29 -3 -14 1 -28 12 -37 35 -32
62 -70 62 -87 0 -23 35 -57 74 -72 16 -6 26 -13 24 -16 -5 -5 -87 11 -92 18
-1 1 -14 22 -29 45 -15 24 -27 46 -27 51 0 5 -9 17 -20 27 -11 10 -20 28 -20
39 0 17 -2 18 -10 6 -12 -19 -16 -13 -24 31 -5 26 -2 40 9 49 8 7 15 19 15 26
0 8 5 14 11 14 7 0 8 -11 4 -29z m505 -152 c0 -5 -9 -9 -20 -9 -19 0 -27 20
-13 33 7 8 33 -11 33 -24z m-565 -8 c-3 -6 -11 -11 -17 -11 -6 0 -6 6 2 15 14
17 26 13 15 -4z m-95 -161 c0 -5 -4 -10 -10 -10 -5 0 -10 5 -10 10 0 6 5 10
10 10 6 0 10 -4 10 -10z"/>
<path d="M2942 4315 c0 -16 2 -22 5 -12 2 9 2 23 0 30 -3 6 -5 -1 -5 -18z"/>
<path d="M2951 4124 c0 -11 3 -14 6 -6 3 7 2 16 -1 19 -3 4 -6 -2 -5 -13z"/>
<path d="M2972 4105 c0 -16 2 -22 5 -12 2 9 2 23 0 30 -3 6 -5 -1 -5 -18z"/>
<path d="M4989 4757 c18 -23 51 -22 51 1 0 14 -2 15 -10 2 -8 -13 -12 -13 -32
-1 -21 13 -22 13 -9 -2z"/>
<path d="M5056 4715 c25 -19 40 -19 24 0 -7 8 -20 15 -28 15 -13 0 -12 -3 4
-15z"/>
<path d="M3759 4165 c-80 -16 -123 -41 -178 -101 -69 -76 -81 -117 -81 -290
l0 -143 313 4 c171 3 316 5 321 5 4 0 6 73 5 163 -4 155 -5 164 -31 208 -70
119 -213 182 -349 154z m274 -136 c-4 -4 -15 -4 -23 2 -13 8 -12 12 5 25 18
14 20 13 23 -2 2 -9 0 -20 -5 -25z m-23 -284 c0 -12 -28 -35 -44 -35 -3 0 -10
9 -16 19 -14 28 13 55 41 41 10 -6 19 -17 19 -25z"/>
<path d="M3796 3411 c-19 -7 -18 -8 4 -14 14 -3 36 -3 49 0 23 6 24 7 6 14
-25 10 -35 10 -59 0z"/>
<path d="M3706 3351 c-10 -10 -13 -22 -8 -25 5 -3 14 6 20 19 14 30 11 31 -12
6z"/>
<path d="M3220 3330 c0 -5 7 -10 16 -10 8 0 12 5 9 10 -3 6 -10 10 -16 10 -5
0 -9 -4 -9 -10z"/>
<path d="M3914 3315 c-19 -15 -19 -15 1 -31 19 -15 17 -15 -27 -13 -53 3 -67
-4 -49 -25 8 -10 9 -21 1 -41 -14 -37 -2 -51 22 -26 10 12 16 26 13 32 -4 6 2
8 18 4 32 -8 57 25 57 77 0 42 -6 46 -36 23z"/>
<path d="M3828 3000 c-10 -6 -18 -22 -18 -35 0 -13 -8 -29 -17 -34 -15 -9 -13
-10 12 -10 17 0 39 6 49 14 22 17 76 20 76 5 0 -5 4 -10 9 -10 9 0 -2 56 -13
67 -10 11 -82 13 -98 3z"/>
<path d="M3700 2929 c0 -5 5 -7 10 -4 6 3 10 8 10 11 0 2 -4 4 -10 4 -5 0 -10
-5 -10 -11z"/>
<path d="M4876 2876 c1 -12 7 -20 13 -18 9 2 10 -5 6 -20 -7 -23 -7 -23 9 -3
21 27 20 38 -7 51 -21 9 -23 8 -21 -10z"/>
<path d="M4655 2860 c-4 -6 -1 -9 6 -8 7 2 16 -8 20 -22 4 -14 8 -20 9 -15 1
6 5 0 10 -12 5 -11 6 -31 3 -44 -6 -22 -7 -22 -14 -3 -5 12 -7 -1 -7 -36 1
-49 1 -51 8 -20 l7 35 2 -33 1 -33 38 28 c20 15 52 41 69 58 31 28 32 32 18
52 -13 18 -33 26 -110 40 -11 2 -24 8 -29 13 -13 13 -23 13 -31 0z"/>
<path d="M4651 2644 c0 -11 3 -14 6 -6 3 7 2 16 -1 19 -3 4 -6 -2 -5 -13z"/>
<path d="M3044 2622 c5 -8 -1 -12 -18 -12 -35 0 -46 -26 -46 -113 0 -68 3 -78
31 -113 40 -51 71 -69 81 -46 4 9 7 70 7 134 l1 117 -32 22 c-17 13 -28 18
-24 11z"/>
<path d="M4927 2503 c-4 -3 -7 -11 -7 -17 0 -6 5 -5 12 2 6 6 9 14 7 17 -3 3
-9 2 -12 -2z"/>
<path d="M5624 4965 c-9 -38 3 -77 24 -73 13 2 18 15 20 51 3 42 1 47 -17 47
-14 0 -23 -9 -27 -25z"/>
<path d="M6050 4505 c0 -19 5 -35 11 -35 5 0 7 -5 3 -11 -4 -7 -1 -10 7 -7 16
5 24 68 8 68 -5 0 -7 5 -4 10 3 6 -1 10 -9 10 -12 0 -16 -10 -16 -35z m17 -17
c-3 -8 -6 -5 -6 6 -1 11 2 17 5 13 3 -3 4 -12 1 -19z"/>
<path d="M6060 4416 c0 -2 7 -9 15 -16 12 -10 15 -10 15 4 0 9 -7 16 -15 16
-8 0 -15 -2 -15 -4z"/>
<path d="M5913 4248 c-13 -30 -4 -271 10 -280 16 -10 16 -120 0 -114 -7 3 -10
-1 -6 -10 6 -16 23 -19 23 -4 0 6 7 10 15 10 22 0 29 25 16 60 l-10 31 37 -6
c33 -6 35 -5 20 8 -22 18 -23 33 -2 41 9 3 13 13 11 23 -3 10 -8 39 -12 65 -4
29 -11 47 -18 45 -7 -1 -12 5 -12 13 0 8 -11 37 -23 64 -13 26 -21 55 -18 62
9 24 -20 15 -31 -8z m94 -250 c-3 -8 -6 -5 -6 6 -1 11 2 17 5 13 3 -3 4 -12 1
-19z"/>
<path d="M6270 4143 c0 -16 -6 -23 -20 -23 -11 0 -22 -6 -25 -12 -8 -27 -14
-594 -6 -607 11 -18 18 -5 25 52 4 26 11 57 15 70 30 73 33 88 20 104 -7 8 -7
18 -1 29 6 10 6 29 1 48 -5 16 -9 73 -9 126 1 52 0 102 0 110 0 8 3 34 8 57 5
23 5 48 1 55 -6 9 -9 6 -9 -9z"/>
<path d="M7174 4117 c-10 -28 0 -82 16 -82 11 0 15 12 15 44 0 44 -19 68 -31
38z"/>
<path d="M6081 4084 c0 -11 3 -14 6 -6 3 7 2 16 -1 19 -3 4 -6 -2 -5 -13z"/>
<path d="M6073 3957 c3 -9 1 -17 -6 -20 -8 -2 -7 -8 4 -20 15 -14 16 -13 17
14 0 16 -4 32 -10 35 -7 5 -9 1 -5 -9z"/>
<path d="M6393 3905 c-15 -40 -24 -81 -29 -135 -3 -43 -3 -44 13 -25 12 16 14
16 10 3 -3 -10 -2 -20 3 -23 4 -3 15 26 24 64 18 80 20 111 7 111 -5 0 -11 8
-13 18 -2 12 -6 9 -15 -13z"/>
<path d="M6619 3784 c-17 -21 0 -49 31 -49 31 0 48 28 31 49 -8 9 -21 16 -31
16 -10 0 -23 -7 -31 -16z"/>
<path d="M6735 3779 c-5 -13 -1 -27 8 -37 14 -14 18 -13 41 1 17 12 23 22 19
34 -6 15 -7 15 -13 -2 -6 -17 -7 -17 -12 3 -8 28 -35 29 -43 1z"/>
<path d="M6852 3770 c0 -19 2 -27 5 -17 2 9 2 25 0 35 -3 9 -5 1 -5 -18z"/>
<path d="M6890 3765 c0 -14 5 -25 10 -25 6 0 10 11 10 25 0 14 -4 25 -10 25
-5 0 -10 -11 -10 -25z"/>
<path d="M6932 3765 c0 -16 2 -22 5 -12 2 9 2 23 0 30 -3 6 -5 -1 -5 -18z"/>
<path d="M6987 3766 c-3 -8 -3 -17 0 -20 4 -3 52 -6 107 -6 90 0 103 2 114 20
12 20 10 20 -102 20 -88 0 -115 -3 -119 -14z"/>
<path d="M6542 3701 c-8 -18 -19 -28 -26 -25 -9 4 -16 -7 -20 -30 -4 -20 -10
-36 -14 -36 -4 0 -15 -12 -24 -27 -14 -26 -14 -30 3 -58 11 -16 20 -25 20 -20
1 6 3 15 4 20 2 6 3 25 4 43 1 31 3 32 41 32 36 0 40 3 40 25 l0 25 295 0
c258 0 294 2 289 15 -5 13 -47 15 -294 15 l-288 0 -9 25 -8 25 -13 -29z m-12
-51 c0 -5 -5 -10 -11 -10 -5 0 -7 5 -4 10 3 6 8 10 11 10 2 0 4 -4 4 -10z"/>
<path d="M7261 3717 c0 -9 -7 -26 -13 -37 -10 -15 -10 -22 -2 -28 7 -4 14 -18
17 -32 4 -21 4 -20 6 8 0 19 -4 32 -11 32 -10 0 -10 2 0 9 8 5 12 20 9 37 -2
16 -5 21 -6 11z"/>
<path d="M7170 3665 c0 -9 9 -15 25 -15 18 0 23 4 19 15 -4 8 -15 15 -25 15
-10 0 -19 -7 -19 -15z"/>
<path d="M6621 3597 c-15 -18 -5 -44 20 -52 26 -9 51 13 47 39 -4 25 -49 34
-67 13z"/>
<path d="M6737 3603 c-4 -3 -7 -15 -7 -25 0 -19 36 -39 57 -31 18 7 25 34 12
49 -12 15 -51 19 -62 7z"/>
<path d="M6852 3580 c0 -19 2 -27 5 -17 2 9 2 25 0 35 -3 9 -5 1 -5 -18z"/>
<path d="M6890 3580 c0 -16 5 -30 10 -30 6 0 10 14 10 30 0 17 -4 30 -10 30
-5 0 -10 -13 -10 -30z"/>
<path d="M6932 3580 c0 -19 2 -27 5 -17 2 9 2 25 0 35 -3 9 -5 1 -5 -18z"/>
<path d="M6982 3578 c3 -9 36 -13 114 -15 60 0 100 1 89 4 -11 3 -24 9 -29 14
-16 15 -178 11 -174 -3z"/>
<path d="M7178 3583 c6 -2 18 -2 25 0 6 3 1 5 -13 5 -14 0 -19 -2 -12 -5z"/>
<path d="M6615 3400 c-9 -28 12 -52 44 -48 22 2 26 8 26 33 0 26 -4 30 -32 33
-25 2 -33 -1 -38 -18z"/>
<path d="M6743 3413 c-16 -6 -17 -35 -1 -51 30 -30 77 4 57 41 -10 17 -31 21
-56 10z"/>
<path d="M6850 3384 c0 -40 12 -39 17 1 2 13 -1 26 -7 30 -6 4 -10 -8 -10 -31z"/>
<path d="M6890 3390 c0 -16 5 -30 10 -30 6 0 10 14 10 30 0 17 -4 30 -10 30
-5 0 -10 -13 -10 -30z"/>
<path d="M6932 3390 c0 -19 2 -27 5 -17 2 9 2 25 0 35 -3 9 -5 1 -5 -18z"/>
<path d="M6982 3378 c2 -13 9 -23 16 -22 6 1 57 2 112 3 82 1 100 4 100 16 0
8 -9 15 -20 15 -11 0 -20 -4 -20 -10 0 -5 -4 -10 -10 -10 -5 0 -9 6 -7 13 1 9
-22 13 -86 15 -88 3 -89 3 -85 -20z"/>
<path d="M1580 4106 c0 -2 7 -6 15 -10 8 -3 15 -1 15 4 0 6 -7 10 -15 10 -8 0
-15 -2 -15 -4z"/>
<path d="M1602 4015 c0 -16 2 -22 5 -12 2 9 2 23 0 30 -3 6 -5 -1 -5 -18z"/>
<path d="M1581 3964 c0 -11 3 -14 6 -6 3 7 2 16 -1 19 -3 4 -6 -2 -5 -13z"/>
<path d="M6669 4308 c-8 -74 -1 -95 26 -85 23 10 17 90 -7 95 -10 2 -19 -2
-19 -10z"/>
<path d="M725 3334 c-60 -65 7 -166 89 -134 25 9 26 12 20 67 -4 32 -11 66
-16 76 -14 27 -64 22 -93 -9z"/>
<path d="M850 3335 c0 -19 25 -75 33 -75 13 0 -1 52 -19 70 -8 8 -14 10 -14 5z"/>
<path d="M867 3103 c-12 -12 -7 -53 6 -53 9 0 12 10 9 30 -5 32 -5 33 -15 23z"/>
<path d="M608 3010 c-19 -15 -21 -22 -12 -37 14 -23 57 -28 73 -9 16 19 9 41
-18 55 -15 8 -24 6 -43 -9z"/>
<path d="M1034 2361 c0 -11 4 -17 8 -15 10 7 10 34 0 34 -4 0 -8 -9 -8 -19z"/>
<path d="M1577 3578 c-27 -14 -36 -49 -38 -134 -2 -83 4 -94 54 -94 32 0 34 4
45 88 7 52 6 65 -5 69 -8 3 -10 9 -5 12 14 9 27 55 13 47 -6 -4 -11 -2 -11 4
0 6 -5 8 -11 4 -6 -3 -14 -2 -18 4 -4 7 -12 7 -24 0z"/>
<path d="M387 3192 c-25 -27 -21 -59 9 -78 34 -23 75 -9 88 28 19 54 -58 93
-97 50z"/>
<path d="M7551 3006 c-7 -8 -10 -27 -7 -43 2 -15 5 -31 5 -35 1 -5 10 -8 22
-8 18 0 20 5 17 47 -3 49 -17 63 -37 39z"/>
<path d="M6320 2806 c0 -58 -7 -66 -61 -66 l-49 0 0 -225 0 -225 200 0 200 0
-2 273 -3 272 -142 3 -143 3 0 -35z m151 -143 c32 -31 59 -60 59 -65 0 -4 -13
-8 -30 -8 l-29 0 -3 -107 -3 -108 -48 -3 c-72 -5 -77 4 -77 119 l0 99 -30 0
c-16 0 -30 4 -30 9 0 8 119 120 128 121 2 0 30 -25 63 -57z"/>
<path d="M5297 2563 c-11 -10 -8 -75 3 -68 6 3 7 -1 4 -9 -4 -11 0 -16 10 -16
13 0 16 11 16 50 0 35 -4 50 -13 50 -8 0 -17 -3 -20 -7z"/>
<path d="M5633 2533 c-14 -5 -17 -71 -5 -91 14 -21 40 -3 45 31 8 56 -4 75
-40 60z"/>
<path d="M2125 2341 c-58 -26 -68 -42 -40 -63 22 -16 23 -16 54 29 18 25 31
47 29 49 -2 1 -21 -5 -43 -15z"/>
<path d="M2208 2333 c-28 -31 -58 -74 -58 -84 0 -9 48 -29 70 -29 18 0 20 7
20 70 0 39 -1 70 -3 70 -2 0 -15 -12 -29 -27z"/>
<path d="M2276 2351 c-3 -4 -5 -36 -5 -71 l1 -62 41 6 c43 7 57 13 57 25 0 14
-89 111 -94 102z"/>
<path d="M2367 2311 c34 -44 40 -48 57 -37 33 21 29 31 -23 59 -69 38 -76 34
-34 -22z"/>
<path d="M1997 2221 c-15 -27 -27 -63 -27 -80 0 -30 2 -31 43 -31 l42 0 18 61
18 60 -23 19 c-34 28 -42 25 -71 -29z"/>
<path d="M2449 2247 c-20 -17 -25 -27 -19 -42 5 -11 9 -37 9 -57 l1 -38 56 0
57 0 -7 33 c-8 40 -47 120 -61 124 -5 1 -22 -8 -36 -20z"/>
<path d="M2111 2173 c-18 -63 -18 -63 60 -63 l70 0 -3 36 c-3 35 -6 38 -53 50
-27 7 -53 13 -57 14 -4 0 -12 -17 -17 -37z"/>
<path d="M2325 2192 c-46 -16 -50 -20 -52 -49 l-1 -33 70 0 71 0 -7 42 c-11
66 -7 64 -81 40z"/>
<path d="M1983 2073 c-7 -2 -13 -11 -13 -19 0 -18 46 -110 59 -118 10 -7 61
13 61 23 -1 22 -32 106 -43 113 -13 8 -45 9 -64 1z"/>
<path d="M2104 2065 c-3 -7 1 -28 9 -48 l15 -35 44 10 c23 6 49 12 56 14 8 3
12 16 10 36 l-3 33 -63 2 c-44 1 -65 -3 -68 -12z"/>
<path d="M2274 2071 c-7 -7 -4 -60 4 -64 4 -3 28 -7 53 -11 42 -6 46 -5 57 19
25 54 18 62 -49 61 -33 0 -62 -3 -65 -5z"/>
<path d="M2444 2065 c-22 -62 -34 -98 -32 -100 2 0 16 -9 31 -19 23 -14 31
-15 43 -5 22 18 54 84 54 111 0 22 -4 24 -46 23 -26 0 -48 -4 -50 -10z"/>
<path d="M2178 1958 c-16 -5 -28 -13 -28 -17 0 -4 20 -27 45 -51 l45 -44 0 62
c0 68 -5 71 -62 50z"/>
<path d="M2277 1964 c-10 -11 -9 -104 2 -104 16 0 82 83 73 92 -12 12 -66 21
-75 12z"/>
<path d="M2086 1911 c-16 -18 -15 -20 27 -40 24 -11 46 -21 50 -21 8 0 -45 79
-54 80 -3 0 -14 -8 -23 -19z"/>
<path d="M2380 1921 c0 -5 -12 -23 -26 -40 -21 -25 -23 -31 -9 -31 15 0 51 16
85 39 13 9 12 12 -5 25 -23 17 -45 21 -45 7z"/>
<path d="M7590 2253 c-21 -8 -30 -24 -30 -55 0 -31 15 -45 24 -23 6 16 56 21
56 6 0 -5 -9 -7 -20 -4 -14 4 -21 -1 -25 -20 -12 -45 -2 -82 23 -85 18 -3 22
1 23 25 0 15 2 37 5 48 2 11 6 35 10 53 10 49 -18 73 -66 55z"/>
<path d="M7562 2105 c0 -16 2 -22 5 -12 2 9 2 23 0 30 -3 6 -5 -1 -5 -18z"/>
<path d="M7570 2056 c0 -18 40 -30 69 -21 30 9 26 28 -4 21 -14 -4 -34 -2 -45
4 -16 9 -20 8 -20 -4z"/>
<path d="M5290 1851 c0 -22 5 -43 11 -46 14 -9 16 -7 24 43 6 38 5 42 -14 42
-18 0 -21 -6 -21 -39z"/>
<path d="M4316 7753 c-3 -38 -2 -117 3 -177 6 -86 12 -112 25 -122 28 -20 94
-27 127 -14 51 22 59 51 59 225 l0 155 -104 0 -103 0 -7 -67z"/>
<path d="M4660 7100 c0 -5 5 -10 11 -10 5 0 7 5 4 10 -3 6 -8 10 -11 10 -2 0
-4 -4 -4 -10z"/>
<path d="M3815 7070 c-4 -6 3 -10 14 -10 25 0 27 6 6 13 -8 4 -17 2 -20 -3z"/>
<path d="M2871 7032 c-13 -24 -15 -52 -3 -51 4 0 16 4 27 9 13 5 26 3 36 -7
15 -12 22 -12 53 1 20 8 43 22 52 30 13 13 11 16 -18 20 -18 3 -44 5 -58 5
-14 0 -37 2 -52 6 -20 5 -29 3 -37 -13z"/>
<path d="M3948 7023 c7 -3 16 -2 19 1 4 3 -2 6 -13 5 -11 0 -14 -3 -6 -6z"/>
<path d="M4108 7023 c7 -3 16 -2 19 1 4 3 -2 6 -13 5 -11 0 -14 -3 -6 -6z"/>
<path d="M4170 7020 c0 -5 5 -10 11 -10 5 0 7 5 4 10 -3 6 -8 10 -11 10 -2 0
-4 -4 -4 -10z"/>
<path d="M4733 6985 c-3 -9 -3 -18 0 -21 6 -7 47 18 47 28 0 15 -41 8 -47 -7z"/>
<path d="M4630 6950 c0 -5 5 -10 10 -10 6 0 10 5 10 10 0 6 -4 10 -10 10 -5 0
-10 -4 -10 -10z"/>
<path d="M2893 6933 c-13 -8 -23 -23 -23 -32 0 -13 2 -14 9 -2 5 8 29 23 53
32 41 17 41 18 13 18 -16 0 -40 -7 -52 -16z"/>
<path d="M1795 6860 c-43 -20 -53 -29 -37 -29 13 -1 20 -5 17 -11 -8 -13 46
-2 60 13 7 6 1 7 -17 3 -43 -10 -33 1 25 28 29 15 43 26 32 26 -11 -1 -47 -14
-80 -30z"/>
<path d="M2063 6783 c9 -2 23 -2 30 0 6 3 -1 5 -18 5 -16 0 -22 -2 -12 -5z"/>
<path d="M2135 6780 c-4 -6 8 -10 29 -10 19 0 38 5 41 10 4 6 -8 10 -29 10
-19 0 -38 -4 -41 -10z"/>
<path d="M5170 6780 c0 -5 5 -10 10 -10 6 0 10 5 10 10 0 6 -4 10 -10 10 -5 0
-10 -4 -10 -10z"/>
<path d="M2256 6395 c-15 -11 -16 -15 -5 -15 8 0 24 7 35 15 14 11 15 14 4 14
-8 0 -24 -6 -34 -14z"/>
<path d="M2990 6373 c-37 -19 -100 -41 -147 -50 l-83 -16 0 -52 c0 -112 32
-220 96 -320 40 -64 130 -157 171 -178 31 -17 32 -16 80 21 77 61 141 139 177
216 41 88 54 140 57 235 l2 74 -113 29 c-62 15 -115 26 -118 24 -2 -3 -5 -20
-6 -38 -1 -26 -6 -34 -24 -36 -37 -5 -51 62 -19 88 16 13 17 18 6 26 -10 8
-31 2 -79 -23z m324 -89 c10 -4 16 -18 16 -36 0 -17 -4 -27 -10 -23 -5 3 -10
2 -10 -3 0 -5 -9 -12 -19 -15 -27 -7 -39 52 -14 70 20 15 17 15 37 7z m-244
-30 c0 -11 -5 -14 -16 -10 -9 3 -21 6 -27 6 -16 0 14 20 31 20 6 0 12 -7 12
-16z m170 -61 c-1 -28 -172 -248 -195 -251 -23 -3 -150 130 -150 157 0 35 41
22 89 -29 26 -27 50 -50 55 -50 4 0 41 43 80 95 57 74 78 95 97 95 16 0 24 -6
24 -17z"/>
<path d="M1648 5893 c7 -3 16 -2 19 1 4 3 -2 6 -13 5 -11 0 -14 -3 -6 -6z"/>
<path d="M1275 5409 c-4 -24 -7 -56 -7 -71 0 -15 -4 -30 -9 -33 -5 -4 -10 15
-10 42 l-1 48 -10 -60 c-6 -33 -11 -100 -11 -150 l-2 -90 80 -5 80 -5 3 -198
c2 -175 4 -196 17 -183 8 8 15 23 15 34 0 11 6 22 14 25 9 4 12 14 9 28 -5 19
-4 20 14 10 26 -13 34 -5 23 24 -5 13 -7 25 -6 26 10 11 15 128 6 134 -5 3 -9
23 -9 43 1 58 -23 141 -42 147 -9 3 -23 25 -30 50 -10 35 -17 44 -30 40 -14
-5 -19 6 -30 60 -8 40 -18 65 -26 65 -7 0 -13 8 -13 18 0 9 -4 23 -9 31 -6 9
-11 0 -16 -30z"/>
<path d="M1152 5215 c0 -30 5 -45 14 -45 9 0 10 8 4 31 -5 16 -6 37 -3 45 3 8
0 14 -6 14 -6 0 -10 -19 -9 -45z"/>
<path d="M1202 5170 c0 -14 2 -19 5 -12 2 6 2 18 0 25 -3 6 -5 1 -5 -13z"/>
<path d="M758 4952 c-33 -3 -38 -7 -38 -27 l0 -25 287 -2 288 -3 27 -90 27
-90 0 118 1 117 -58 0 c-33 0 -64 -5 -71 -12 -10 -10 -15 -10 -18 -1 -3 9 -12
9 -30 2 -16 -6 -30 -6 -37 0 -11 9 -303 19 -378 13z"/>
<path d="M640 4851 c0 -18 22 -23 113 -24 80 -1 92 1 95 16 3 15 -8 17 -102
17 -60 0 -106 -4 -106 -9z"/>
<path d="M3635 171 c-10 -17 -17 -104 -10 -138 6 -31 8 -33 50 -33 l45 0 0 78
c0 47 -5 83 -12 90 -14 14 -64 16 -73 3z"/>
</g>
</svg>
